<svg width="510" height="709" viewBox="0 0 510 709" fill="none" xmlns="http://www.w3.org/2000/svg">
<rect x="14.5715" y="354.82" width="480.297" height="306.232" rx="153.116" fill="#FFC876"/>
<path d="M470.769 620.375C450.745 642.993 419.279 663.418 376.37 681.651C333.462 699.884 293.822 709 257.452 709C220.264 709 179.603 699.884 135.469 681.651C91.3341 663.418 59.2548 642.993 39.2308 620.375C13.0769 590.833 0 472.667 0 265.875V22.1562C0 16.1556 1.94111 10.9627 5.82332 6.57764C9.70553 2.19255 14.3029 0 19.6154 0C24.9279 0 29.5252 2.19255 33.4075 6.57764C37.2897 10.9627 39.2308 16.1556 39.2308 22.1562L61.9111 125.321C86.4303 100.396 115.751 80.6626 149.874 66.1226C183.996 51.5825 219.856 44.3125 257.452 44.3125C294.639 44.3125 329.784 51.4671 362.885 65.7764C395.986 80.0856 424.387 99.4723 448.089 123.937L470.769 22.1562C470.769 16.1556 472.71 10.9627 476.593 6.57764C480.475 2.19255 485.072 0 490.385 0C495.697 0 500.294 2.19255 504.177 6.57764C508.059 10.9627 510 16.1556 510 22.1562V265.875C510 472.667 496.923 590.833 470.769 620.375ZM156.923 310.188C146.298 310.188 132.915 305.572 116.773 296.34C100.631 287.108 89.6995 276.492 83.9784 264.49C80.3005 272.337 78.4615 280.184 78.4615 288.031C78.4615 307.88 83.1611 323.92 92.5601 336.152C101.959 348.384 116.875 354.5 137.308 354.5C156.923 354.5 170.919 351.269 179.297 344.807C187.674 338.344 193.293 326.805 196.154 310.188H156.923ZM426.022 264.49C420.3 276.953 409.573 287.685 393.84 296.686C378.107 305.687 364.519 310.188 353.077 310.188H313.846C316.707 326.805 322.326 338.344 330.703 344.807C339.081 351.269 353.077 354.5 372.692 354.5C393.125 354.5 408.041 348.384 417.44 336.152C426.839 323.92 431.538 307.88 431.538 288.031C431.538 280.184 429.7 272.337 426.022 264.49ZM255 487.438L39.2308 398.812C39.2308 499.439 50.2644 562.446 72.3317 587.833C89.0865 607.22 116.262 624.875 153.858 640.8C191.454 656.725 225.781 664.688 256.839 664.688C287.488 664.688 320.998 656.84 357.368 641.146C393.738 625.452 420.505 607.681 437.668 587.833C459.736 562.446 470.769 499.439 470.769 398.812L255 487.438Z" fill="black"/>
</svg>
