<svg width="1em" height="1em" viewBox="0 0 41 41" fill="none" xmlns="http://www.w3.org/2000/svg">
<path d="M40.5879 10.5882L35.7192 6.83675C35.3884 6.62435 35.0286 6.46072 34.6511 6.3509C34.2752 6.22921 33.8838 6.16157 33.4888 6.15H19.475L21.117 16.4H33.4888C33.825 16.4 34.2453 16.3241 34.6491 16.1991C35.053 16.074 35.4424 15.9018 35.7171 15.7153L40.5859 11.9597C40.8626 11.7731 41 11.5251 41 11.275C41 11.0249 40.8626 10.7768 40.5879 10.5882V10.5882ZM17.425 2.05H15.375C15.1032 2.05 14.8424 2.15799 14.6502 2.35021C14.458 2.54244 14.35 2.80315 14.35 3.075V10.25H7.5112C7.1709 10.25 6.7527 10.3258 6.34885 10.4529C5.94295 10.5759 5.5555 10.7461 5.2808 10.9367L0.41205 14.6882C0.1353 14.8748 0 15.1249 0 15.375C0 15.623 0.1353 15.8711 0.41205 16.0617L5.2808 19.8173C5.5555 20.0039 5.94295 20.1761 6.34885 20.2991C6.7527 20.4241 7.1709 20.5 7.5112 20.5H14.35V37.925C14.35 38.1968 14.458 38.4576 14.6502 38.6498C14.8424 38.842 15.1032 38.95 15.375 38.95H17.425C17.6968 38.95 17.9576 38.842 18.1498 38.6498C18.342 38.4576 18.45 38.1968 18.45 37.925V3.075C18.45 2.80315 18.342 2.54244 18.1498 2.35021C17.9576 2.15799 17.6968 2.05 17.425 2.05V2.05Z" fill="#949494"/>
</svg>
