<svg width="2.5em" height="2.5em" viewBox="0 0 26 26" fill="none" xmlns="http://www.w3.org/2000/svg">
<path d="M0 22.6475C0 24.4992 1.50099 26 3.35248 26H22.6474C24.4992 26 26 24.499 26 22.6475V3.35258C26 1.50079 24.499 0 22.6475 0H3.35258C1.50079 0 0 1.50099 0 3.35248V22.6474V22.6475Z" fill="#563D7C"/>
<path d="M10.7817 11.5007V7.81879H14.0226C14.3314 7.81879 14.629 7.84448 14.9156 7.89598C15.2022 7.94737 15.4558 8.03918 15.6763 8.17152C15.8967 8.30385 16.0731 8.48758 16.2054 8.7227C16.3376 8.95791 16.4039 9.25925 16.4039 9.6266C16.4039 10.2881 16.2054 10.7658 15.8085 11.0598C15.4117 11.3538 14.9046 11.5007 14.2872 11.5007H10.7817V11.5007ZM7.32011 5.12891V20.8711H14.9487C15.6542 20.8711 16.3414 20.7829 17.0102 20.6065C17.679 20.4301 18.2742 20.1582 18.7961 19.7908C19.3178 19.4233 19.7331 18.9492 20.0417 18.3687C20.3505 17.7881 20.5048 17.1009 20.5048 16.3072C20.5048 15.3223 20.2659 14.4809 19.7882 13.7827C19.3105 13.0845 18.5865 12.5958 17.6164 12.3165C18.322 11.9785 18.8549 11.5448 19.215 11.0157C19.5751 10.4865 19.7551 9.82516 19.7551 9.03134C19.7551 8.29644 19.6339 7.67914 19.3913 7.17935C19.1488 6.67966 18.807 6.2791 18.3661 5.97777C17.9252 5.67643 17.396 5.45959 16.7786 5.32736C16.1613 5.19502 15.4778 5.12891 14.7282 5.12891H7.32011V5.12891ZM10.7817 18.1812V13.8598H14.5518C15.3014 13.8598 15.9041 14.0325 16.3598 14.378C16.8154 14.7234 17.0433 15.3003 17.0433 16.1087C17.0433 16.5204 16.9734 16.8584 16.8338 17.1229C16.6941 17.3875 16.5067 17.597 16.2715 17.7513C16.0364 17.9057 15.7644 18.0159 15.4558 18.0821C15.147 18.1481 14.8238 18.1812 14.4857 18.1812H10.7817V18.1812Z" fill="white"/>
</svg>
