<svg width="171" height="171" viewBox="0 0 171 171" fill="none" xmlns="http://www.w3.org/2000/svg">
<path d="M167.672 133.8L128.696 98.3619C126.854 96.6874 124.432 95.7943 121.944 95.8712C119.455 95.9481 117.094 96.9891 115.359 98.7742L92.4141 122.371C86.8913 121.316 75.7881 117.855 64.3589 106.454C52.9297 95.0157 49.4684 83.8838 48.4425 78.3994L72.0199 55.4453C73.8073 53.7111 74.8497 51.3495 74.9267 48.8603C75.0036 46.371 74.109 43.9495 72.4322 42.1082L37.0037 3.14196C35.3262 1.29487 32.9946 0.174469 30.5043 0.0187141C28.014 -0.137041 25.5611 0.684118 23.6665 2.30779L2.86 20.1513C1.2023 21.815 0.212873 24.0293 0.0794094 26.3741C-0.0644141 28.7711 -2.80665 85.5521 41.2225 129.6C79.633 168.001 127.747 170.81 140.998 170.81C142.934 170.81 144.123 170.752 144.44 170.733C146.784 170.602 148.997 169.608 150.653 167.943L168.487 147.127C170.117 145.239 170.944 142.788 170.792 140.298C170.64 137.808 169.52 135.476 167.672 133.8V133.8Z" fill="#FA6F1E" fill-opacity="0.8"/>
</svg>
