<svg width="2.5em" height="2.5em" viewBox="0 0 172 197" fill="none" xmlns="http://www.w3.org/2000/svg">
<path d="M85.8948 196.543L15.6533 180.757L0 38.6254H172L156.33 180.735L85.8948 196.543V196.543Z" fill="#264DE4"/>
<path d="M142.916 171.686L156.306 50.2464H86V184.459L142.916 171.686V171.686Z" fill="#2965F1"/>
<path d="M35.8846 102.961L37.8142 120.393H86V102.961H35.8846Z" fill="#EBEBEB"/>
<path d="M32.0065 67.6788L33.9638 85.1106H86V67.6788H32.0065V67.6788Z" fill="#EBEBEB"/>
<path d="M86 148.233L85.9056 148.254L61.925 143.012L60.3918 129.109H38.7764L41.7928 156.48L85.9009 166.392L86 166.37V148.233Z" fill="#EBEBEB"/>
<path d="M40.4794 0H66.5582V8.82916H51.3856V17.6583H66.5596V26.4869H40.4794V0Z" fill="black"/>
<path d="M71.7747 0H97.8541V7.67749H82.6808V9.21287H97.8541V26.8712H71.7753V18.8089H86.9486V17.2735H71.774V0H71.7747Z" fill="black"/>
<path d="M103.071 0H129.15V7.67749H113.977V9.21287H129.15V26.8712H103.071V18.8089H118.244V17.2735H103.071V0H103.071Z" fill="black"/>
<path d="M135.978 102.961L139.865 67.6788H85.9258V85.1106H116.267L114.308 102.961H85.9258V120.393H112.441L109.941 143.001L85.9252 148.248V166.384L130.068 156.48L130.392 153.534L135.453 107.642L135.978 102.961V102.961Z" fill="white"/>
</svg>
