<svg width='1em' height="1em" viewBox="0 0 30 22" fill="none" xmlns="http://www.w3.org/2000/svg">
<path d="M28.5 0.00965192C28.3722 -0.00321731 28.2434 -0.00321731 28.1156 0.00965192H1.86563C1.69739 0.0121855 1.53026 0.0368405 1.36875 0.082953L14.9156 13.268L28.5 0.00965192Z" fill="#949494"/>
<path d="M29.8875 1.28326L16.2375 14.5691C15.8862 14.9104 15.411 15.102 14.9156 15.102C14.4203 15.102 13.9451 14.9104 13.5938 14.5691L0.065625 1.38405C0.024037 1.53344 0.00198627 1.68738 0 1.84218V20.1675C0 20.6535 0.197544 21.1196 0.549175 21.4633C0.900806 21.8069 1.37772 22 1.875 22H28.125C28.6223 22 29.0992 21.8069 29.4508 21.4633C29.8025 21.1196 30 20.6535 30 20.1675V1.84218C29.9925 1.65128 29.9546 1.4627 29.8875 1.28326V1.28326ZM3.15938 20.1675H1.85625V18.8572L8.67188 12.2509L9.99375 13.5429L3.15938 20.1675ZM28.1062 20.1675H26.7937L19.9594 13.5429L21.2812 12.2509L28.0969 18.8572L28.1062 20.1675Z" fill="#949494"/>
</svg>
