<svg width="320" height="241" viewBox="0 0 320 241" fill="none" xmlns="http://www.w3.org/2000/svg">
<path d="M304 0.105298C302.637 -0.0350994 301.263 -0.0350994 299.9 0.105298H19.8996C18.105 0.132939 16.3224 0.401914 14.5996 0.90498L159.1 144.748L304 0.105298Z" fill="#FA6F1E" fill-opacity="0.8"/>
<path d="M318.8 13.9996L173.2 158.942C169.453 162.666 164.384 164.756 159.1 164.756C153.816 164.756 148.747 162.666 145 158.942L0.700001 15.0992C0.256394 16.729 0.0211869 18.4083 0 20.0972V220.018C0 225.32 2.10714 230.405 5.85786 234.155C9.60859 237.904 14.6957 240.01 20 240.01H300C305.304 240.01 310.391 237.904 314.142 234.155C317.893 230.405 320 225.32 320 220.018V20.0972C319.92 18.0146 319.516 15.9572 318.8 13.9996V13.9996ZM33.7 220.018H19.8V205.724L92.5 133.652L106.6 147.747L33.7 220.018ZM299.8 220.018H285.8L212.9 147.747L227 133.652L299.7 205.724L299.8 220.018Z" fill="#FA6F1E" fill-opacity="0.8"/>
</svg>
