<svg width="2.5em" height="2.5em" viewBox="0 0 196 70" fill="none" xmlns="http://www.w3.org/2000/svg">
<g filter="url(#filter0_d)">
<mask id="path-1-inside-1" fill="white">
<path d="M5.22347 48.3461V24.5215H31.3467V23.128H5.22347V1.39316H32.9983V0H4V49.7392H33.2428V48.3461H5.22384H5.22347ZM56.7968 13.9324L45.9684 30.164L35.3843 13.9328H33.7936L45.2341 31.2093L32.692 49.7388H34.1604L45.9677 32.2533L57.8363 49.7388H59.3656L46.763 31.2084L58.2644 13.932H56.7964L56.7968 13.9324ZM63.0368 62V39.7083H63.159C63.8934 42.9591 65.3412 45.5715 67.5029 47.5454C69.6645 49.5189 72.4173 50.5061 75.7617 50.5061C77.9233 50.5061 79.8404 50.0068 81.5125 49.0084C83.1847 48.0099 84.5815 46.6515 85.7033 44.933C86.8246 43.2146 87.6813 41.2177 88.2728 38.9419C88.864 36.6665 89.16 34.2745 89.16 31.767C89.16 29.0731 88.8537 26.5883 88.242 24.3129C87.6303 22.0371 86.7431 20.0632 85.581 18.3916C84.4185 16.7195 83.0114 15.4188 81.3594 14.4906C79.7078 13.5615 77.8418 13.097 75.7617 13.097C74.171 13.097 72.6927 13.3642 71.3264 13.8981C69.9601 14.4325 68.7469 15.1867 67.6865 16.1622C66.6198 17.1451 65.6914 18.308 64.9333 19.6104C64.1585 20.9341 63.567 22.3854 63.159 23.9646H63.0368V13.9324H61.8133V62H63.0368V62ZM75.7617 49.1819C71.9282 49.1819 68.8486 47.6842 66.524 44.6888C64.1993 41.6935 63.0368 37.3856 63.0368 31.7662C63.0368 29.444 63.3224 27.238 63.8934 25.1483C64.4644 23.0586 65.2902 21.2239 66.3708 19.6451C67.4518 18.0659 68.7877 16.8119 70.378 15.8833C71.9686 14.9543 73.7634 14.4897 75.7617 14.4897C77.801 14.4897 79.5855 14.9543 81.1149 15.8833C82.6442 16.8119 83.9088 18.0776 84.9079 19.6798C85.907 21.282 86.6616 23.1167 87.1716 25.183C87.6813 27.2497 87.9361 29.444 87.9361 31.7662C87.9361 33.8563 87.7019 35.9348 87.2326 38.0011C86.7637 40.0678 86.0396 41.9255 85.0607 43.5746C84.0821 45.2228 82.8282 46.5695 81.2985 47.6148C79.7688 48.6597 77.9233 49.1819 75.7617 49.1819V49.1819ZM95.8894 49.7392V29.4674C95.8894 27.5169 96.134 25.6124 96.6238 23.7551C97.1129 21.8975 97.8674 20.2601 98.8871 18.844C99.9068 17.4274 101.202 16.3127 102.772 15.4999C104.342 14.6871 106.208 14.3505 108.37 14.4897V13.0966C106.493 13.0506 104.852 13.2822 103.445 13.7932C102.038 14.3041 100.824 15.0007 99.8047 15.8833C98.7851 16.7655 97.9695 17.7987 97.3578 18.9832C96.7465 20.1658 96.2929 21.4453 96.0117 22.7797H95.8894V13.9324H94.6659V49.7396H95.8894V49.7392ZM109.899 32.1145H136.205C136.287 29.653 136.073 27.2848 135.563 25.0091C135.054 22.7333 134.238 20.7129 133.116 18.9485C131.995 17.1836 130.547 15.7671 128.773 14.6988C126.998 13.6305 124.888 13.0966 122.441 13.0966C120.687 13.0966 118.974 13.5147 117.302 14.3509C115.629 15.1867 114.161 16.4055 112.897 18.0077C111.633 19.61 110.613 21.5722 109.838 23.8948C109.063 26.2166 108.676 28.8636 108.676 31.836C108.676 34.4831 108.941 36.9562 109.471 39.255C110.001 41.5538 110.817 43.5511 111.918 45.2462C113.019 46.9412 114.437 48.2533 116.17 49.1819C117.903 50.1109 119.993 50.552 122.441 50.5056C126.03 50.5056 129.048 49.3558 131.495 47.0574C133.942 44.7582 135.39 41.5191 135.839 37.3392H134.615C134.085 41.2871 132.729 44.2477 130.547 46.2212C128.365 48.1951 125.622 49.1819 122.318 49.1819C120.075 49.1819 118.178 48.7408 116.629 47.8586C115.079 46.9763 113.814 45.7684 112.835 44.236C111.857 42.7032 111.133 40.9037 110.664 38.8369C110.195 36.7706 109.94 34.5295 109.899 32.1145ZM134.982 30.7213H109.899C110.021 28.2135 110.429 25.9611 111.123 23.9642C111.816 21.9669 112.723 20.2601 113.845 18.844C114.967 17.4274 116.272 16.3478 117.761 15.6044C119.249 14.8614 120.85 14.4897 122.563 14.4897C124.602 14.4897 126.396 14.9196 127.947 15.7788C129.496 16.638 130.791 17.8108 131.832 19.2968C132.871 20.7828 133.656 22.5129 134.187 24.4864C134.717 26.4603 134.982 28.5388 134.982 30.7213ZM161.595 24.5215H162.818C162.818 20.5273 161.798 17.6247 159.759 15.8135C157.72 14.0022 154.946 13.0966 151.439 13.0966C149.481 13.0966 147.83 13.3755 146.483 13.9328C145.138 14.4897 144.036 15.2097 143.18 16.0919C142.324 16.9742 141.712 17.9496 141.345 19.0179C140.977 20.0862 140.794 21.1081 140.794 22.0831C140.794 24.0336 141.1 25.5894 141.712 26.7505C142.324 27.9116 143.282 28.8172 144.587 29.4674C145.484 29.9315 146.504 30.3496 147.646 30.7217C148.788 31.093 150.113 31.4877 151.623 31.9054C152.968 32.2775 154.294 32.6488 155.599 33.0201C156.904 33.3918 158.056 33.891 159.056 34.5178C160.055 35.145 160.871 35.9461 161.503 36.9215C162.135 37.8966 162.451 39.1739 162.451 40.7527C162.451 42.2855 162.135 43.5859 161.503 44.6537C160.876 45.7164 160.051 46.6086 159.086 47.2665C158.107 47.9397 157.016 48.4272 155.813 48.7291C154.61 49.0309 153.438 49.1819 152.296 49.1819C148.584 49.1819 145.739 48.2415 143.761 46.3609C141.783 44.4798 140.794 41.5191 140.794 37.4785H139.57C139.57 41.9836 140.641 45.2809 142.782 47.371C144.924 49.4608 148.095 50.5056 152.296 50.5056C153.641 50.5056 154.997 50.3313 156.364 49.983C157.73 49.6347 158.954 49.0661 160.034 48.2763C161.106 47.4976 162.006 46.4491 162.665 45.2115C163.338 43.9571 163.675 42.4248 163.675 40.6135C163.675 38.895 163.379 37.5019 162.788 36.4336C162.196 35.3657 161.421 34.4831 160.463 33.7865C159.504 33.0899 158.424 32.5443 157.22 32.1496C156.01 31.7526 154.797 31.3693 153.58 30.9998C152.083 30.5524 150.584 30.1113 149.083 29.6765C147.799 29.3048 146.606 28.8636 145.505 28.3527C144.444 27.8418 143.598 27.1105 142.966 26.1585C142.333 25.2064 142.018 23.848 142.018 22.0831C142.018 21.7582 142.099 21.1775 142.262 20.3417C142.425 19.5054 142.813 18.6579 143.425 17.7987C144.036 16.9399 144.974 16.1735 146.239 15.4999C147.503 14.8267 149.237 14.4897 151.439 14.4897C152.948 14.4897 154.324 14.6758 155.568 15.0471C156.812 15.4188 157.883 16.0108 158.78 16.8236C159.678 17.6365 160.371 18.6696 160.86 19.9235C161.35 21.1779 161.595 22.7103 161.595 24.5215V24.5215ZM189.92 24.5215H191.143C191.143 20.5273 190.124 17.6247 188.085 15.8135C186.045 14.0022 183.272 13.0966 179.764 13.0966C177.807 13.0966 176.155 13.3755 174.809 13.9328C173.463 14.4897 172.362 15.2097 171.505 16.0919C170.649 16.9742 170.037 17.9496 169.67 19.0179C169.303 20.0862 169.119 21.1081 169.119 22.0831C169.119 24.0336 169.425 25.5894 170.037 26.7505C170.649 27.9116 171.608 28.8172 172.912 29.4674C173.81 29.9315 174.829 30.3496 175.971 30.7217C177.113 31.093 178.439 31.4877 179.948 31.9054C181.294 32.2775 182.619 32.6488 183.924 33.0201C185.23 33.3918 186.382 33.891 187.381 34.5178C188.38 35.145 189.196 35.9461 189.828 36.9215C190.46 37.8966 190.777 39.1739 190.777 40.7527C190.777 42.2855 190.46 43.5859 189.828 44.6537C189.201 45.7164 188.376 46.6085 187.412 47.2665C186.433 47.9397 185.342 48.4272 184.139 48.7291C182.936 49.0309 181.763 49.1819 180.621 49.1819C176.909 49.1819 174.065 48.2415 172.087 46.3609C170.108 44.4798 169.119 41.5191 169.119 37.4785H167.896C167.896 41.9836 168.966 45.2809 171.108 47.371C173.249 49.4608 176.42 50.5056 180.621 50.5056C181.967 50.5056 183.323 50.3313 184.689 49.983C186.055 49.6347 187.279 49.0661 188.36 48.2763C189.432 47.4976 190.332 46.4491 190.991 45.2115C191.664 43.9571 192 42.4248 192 40.6135C192 38.895 191.704 37.5019 191.113 36.4336C190.522 35.3657 189.747 34.4831 188.788 33.7865C187.83 33.0899 186.749 32.5443 185.546 32.1496C184.336 31.7526 183.122 31.3693 181.906 30.9998C180.408 30.5524 178.909 30.1113 177.409 29.6765C176.124 29.3048 174.931 28.8636 173.83 28.3527C172.77 27.8418 171.923 27.1105 171.291 26.1585C170.659 25.2064 170.343 23.848 170.343 22.0831C170.343 21.7582 170.424 21.1775 170.588 20.3417C170.751 19.5054 171.139 18.6579 171.75 17.7987C172.362 16.9399 173.3 16.1735 174.564 15.4999C175.829 14.8267 177.562 14.4897 179.765 14.4897C181.274 14.4897 182.65 14.6758 183.894 15.0471C185.138 15.4188 186.208 16.0108 187.106 16.8236C188.003 17.6365 188.696 18.6696 189.186 19.9235C189.675 21.1779 189.92 22.7103 189.92 24.5215H189.92Z"/>
</mask>
<path d="M5.22347 48.3461V24.5215H31.3467V23.128H5.22347V1.39316H32.9983V0H4V49.7392H33.2428V48.3461H5.22384H5.22347ZM56.7968 13.9324L45.9684 30.164L35.3843 13.9328H33.7936L45.2341 31.2093L32.692 49.7388H34.1604L45.9677 32.2533L57.8363 49.7388H59.3656L46.763 31.2084L58.2644 13.932H56.7964L56.7968 13.9324ZM63.0368 62V39.7083H63.159C63.8934 42.9591 65.3412 45.5715 67.5029 47.5454C69.6645 49.5189 72.4173 50.5061 75.7617 50.5061C77.9233 50.5061 79.8404 50.0068 81.5125 49.0084C83.1847 48.0099 84.5815 46.6515 85.7033 44.933C86.8246 43.2146 87.6813 41.2177 88.2728 38.9419C88.864 36.6665 89.16 34.2745 89.16 31.767C89.16 29.0731 88.8537 26.5883 88.242 24.3129C87.6303 22.0371 86.7431 20.0632 85.581 18.3916C84.4185 16.7195 83.0114 15.4188 81.3594 14.4906C79.7078 13.5615 77.8418 13.097 75.7617 13.097C74.171 13.097 72.6927 13.3642 71.3264 13.8981C69.9601 14.4325 68.7469 15.1867 67.6865 16.1622C66.6198 17.1451 65.6914 18.308 64.9333 19.6104C64.1585 20.9341 63.567 22.3854 63.159 23.9646H63.0368V13.9324H61.8133V62H63.0368V62ZM75.7617 49.1819C71.9282 49.1819 68.8486 47.6842 66.524 44.6888C64.1993 41.6935 63.0368 37.3856 63.0368 31.7662C63.0368 29.444 63.3224 27.238 63.8934 25.1483C64.4644 23.0586 65.2902 21.2239 66.3708 19.6451C67.4518 18.0659 68.7877 16.8119 70.378 15.8833C71.9686 14.9543 73.7634 14.4897 75.7617 14.4897C77.801 14.4897 79.5855 14.9543 81.1149 15.8833C82.6442 16.8119 83.9088 18.0776 84.9079 19.6798C85.907 21.282 86.6616 23.1167 87.1716 25.183C87.6813 27.2497 87.9361 29.444 87.9361 31.7662C87.9361 33.8563 87.7019 35.9348 87.2326 38.0011C86.7637 40.0678 86.0396 41.9255 85.0607 43.5746C84.0821 45.2228 82.8282 46.5695 81.2985 47.6148C79.7688 48.6597 77.9233 49.1819 75.7617 49.1819V49.1819ZM95.8894 49.7392V29.4674C95.8894 27.5169 96.134 25.6124 96.6238 23.7551C97.1129 21.8975 97.8674 20.2601 98.8871 18.844C99.9068 17.4274 101.202 16.3127 102.772 15.4999C104.342 14.6871 106.208 14.3505 108.37 14.4897V13.0966C106.493 13.0506 104.852 13.2822 103.445 13.7932C102.038 14.3041 100.824 15.0007 99.8047 15.8833C98.7851 16.7655 97.9695 17.7987 97.3578 18.9832C96.7465 20.1658 96.2929 21.4453 96.0117 22.7797H95.8894V13.9324H94.6659V49.7396H95.8894V49.7392ZM109.899 32.1145H136.205C136.287 29.653 136.073 27.2848 135.563 25.0091C135.054 22.7333 134.238 20.7129 133.116 18.9485C131.995 17.1836 130.547 15.7671 128.773 14.6988C126.998 13.6305 124.888 13.0966 122.441 13.0966C120.687 13.0966 118.974 13.5147 117.302 14.3509C115.629 15.1867 114.161 16.4055 112.897 18.0077C111.633 19.61 110.613 21.5722 109.838 23.8948C109.063 26.2166 108.676 28.8636 108.676 31.836C108.676 34.4831 108.941 36.9562 109.471 39.255C110.001 41.5538 110.817 43.5511 111.918 45.2462C113.019 46.9412 114.437 48.2533 116.17 49.1819C117.903 50.1109 119.993 50.552 122.441 50.5056C126.03 50.5056 129.048 49.3558 131.495 47.0574C133.942 44.7582 135.39 41.5191 135.839 37.3392H134.615C134.085 41.2871 132.729 44.2477 130.547 46.2212C128.365 48.1951 125.622 49.1819 122.318 49.1819C120.075 49.1819 118.178 48.7408 116.629 47.8586C115.079 46.9763 113.814 45.7684 112.835 44.236C111.857 42.7032 111.133 40.9037 110.664 38.8369C110.195 36.7706 109.94 34.5295 109.899 32.1145ZM134.982 30.7213H109.899C110.021 28.2135 110.429 25.9611 111.123 23.9642C111.816 21.9669 112.723 20.2601 113.845 18.844C114.967 17.4274 116.272 16.3478 117.761 15.6044C119.249 14.8614 120.85 14.4897 122.563 14.4897C124.602 14.4897 126.396 14.9196 127.947 15.7788C129.496 16.638 130.791 17.8108 131.832 19.2968C132.871 20.7828 133.656 22.5129 134.187 24.4864C134.717 26.4603 134.982 28.5388 134.982 30.7213ZM161.595 24.5215H162.818C162.818 20.5273 161.798 17.6247 159.759 15.8135C157.72 14.0022 154.946 13.0966 151.439 13.0966C149.481 13.0966 147.83 13.3755 146.483 13.9328C145.138 14.4897 144.036 15.2097 143.18 16.0919C142.324 16.9742 141.712 17.9496 141.345 19.0179C140.977 20.0862 140.794 21.1081 140.794 22.0831C140.794 24.0336 141.1 25.5894 141.712 26.7505C142.324 27.9116 143.282 28.8172 144.587 29.4674C145.484 29.9315 146.504 30.3496 147.646 30.7217C148.788 31.093 150.113 31.4877 151.623 31.9054C152.968 32.2775 154.294 32.6488 155.599 33.0201C156.904 33.3918 158.056 33.891 159.056 34.5178C160.055 35.145 160.871 35.9461 161.503 36.9215C162.135 37.8966 162.451 39.1739 162.451 40.7527C162.451 42.2855 162.135 43.5859 161.503 44.6537C160.876 45.7164 160.051 46.6086 159.086 47.2665C158.107 47.9397 157.016 48.4272 155.813 48.7291C154.61 49.0309 153.438 49.1819 152.296 49.1819C148.584 49.1819 145.739 48.2415 143.761 46.3609C141.783 44.4798 140.794 41.5191 140.794 37.4785H139.57C139.57 41.9836 140.641 45.2809 142.782 47.371C144.924 49.4608 148.095 50.5056 152.296 50.5056C153.641 50.5056 154.997 50.3313 156.364 49.983C157.73 49.6347 158.954 49.0661 160.034 48.2763C161.106 47.4976 162.006 46.4491 162.665 45.2115C163.338 43.9571 163.675 42.4248 163.675 40.6135C163.675 38.895 163.379 37.5019 162.788 36.4336C162.196 35.3657 161.421 34.4831 160.463 33.7865C159.504 33.0899 158.424 32.5443 157.22 32.1496C156.01 31.7526 154.797 31.3693 153.58 30.9998C152.083 30.5524 150.584 30.1113 149.083 29.6765C147.799 29.3048 146.606 28.8636 145.505 28.3527C144.444 27.8418 143.598 27.1105 142.966 26.1585C142.333 25.2064 142.018 23.848 142.018 22.0831C142.018 21.7582 142.099 21.1775 142.262 20.3417C142.425 19.5054 142.813 18.6579 143.425 17.7987C144.036 16.9399 144.974 16.1735 146.239 15.4999C147.503 14.8267 149.237 14.4897 151.439 14.4897C152.948 14.4897 154.324 14.6758 155.568 15.0471C156.812 15.4188 157.883 16.0108 158.78 16.8236C159.678 17.6365 160.371 18.6696 160.86 19.9235C161.35 21.1779 161.595 22.7103 161.595 24.5215V24.5215ZM189.92 24.5215H191.143C191.143 20.5273 190.124 17.6247 188.085 15.8135C186.045 14.0022 183.272 13.0966 179.764 13.0966C177.807 13.0966 176.155 13.3755 174.809 13.9328C173.463 14.4897 172.362 15.2097 171.505 16.0919C170.649 16.9742 170.037 17.9496 169.67 19.0179C169.303 20.0862 169.119 21.1081 169.119 22.0831C169.119 24.0336 169.425 25.5894 170.037 26.7505C170.649 27.9116 171.608 28.8172 172.912 29.4674C173.81 29.9315 174.829 30.3496 175.971 30.7217C177.113 31.093 178.439 31.4877 179.948 31.9054C181.294 32.2775 182.619 32.6488 183.924 33.0201C185.23 33.3918 186.382 33.891 187.381 34.5178C188.38 35.145 189.196 35.9461 189.828 36.9215C190.46 37.8966 190.777 39.1739 190.777 40.7527C190.777 42.2855 190.46 43.5859 189.828 44.6537C189.201 45.7164 188.376 46.6085 187.412 47.2665C186.433 47.9397 185.342 48.4272 184.139 48.7291C182.936 49.0309 181.763 49.1819 180.621 49.1819C176.909 49.1819 174.065 48.2415 172.087 46.3609C170.108 44.4798 169.119 41.5191 169.119 37.4785H167.896C167.896 41.9836 168.966 45.2809 171.108 47.371C173.249 49.4608 176.42 50.5056 180.621 50.5056C181.967 50.5056 183.323 50.3313 184.689 49.983C186.055 49.6347 187.279 49.0661 188.36 48.2763C189.432 47.4976 190.332 46.4491 190.991 45.2115C191.664 43.9571 192 42.4248 192 40.6135C192 38.895 191.704 37.5019 191.113 36.4336C190.522 35.3657 189.747 34.4831 188.788 33.7865C187.83 33.0899 186.749 32.5443 185.546 32.1496C184.336 31.7526 183.122 31.3693 181.906 30.9998C180.408 30.5524 178.909 30.1113 177.409 29.6765C176.124 29.3048 174.931 28.8636 173.83 28.3527C172.77 27.8418 171.923 27.1105 171.291 26.1585C170.659 25.2064 170.343 23.848 170.343 22.0831C170.343 21.7582 170.424 21.1775 170.588 20.3417C170.751 19.5054 171.139 18.6579 171.75 17.7987C172.362 16.9399 173.3 16.1735 174.564 15.4999C175.829 14.8267 177.562 14.4897 179.765 14.4897C181.274 14.4897 182.65 14.6758 183.894 15.0471C185.138 15.4188 186.208 16.0108 187.106 16.8236C188.003 17.6365 188.696 18.6696 189.186 19.9235C189.675 21.1779 189.92 22.7103 189.92 24.5215H189.92Z" fill="black"/>
<path d="M5.22347 48.3461V24.5215H31.3467V23.128H5.22347V1.39316H32.9983V0H4V49.7392H33.2428V48.3461H5.22384H5.22347ZM56.7968 13.9324L45.9684 30.164L35.3843 13.9328H33.7936L45.2341 31.2093L32.692 49.7388H34.1604L45.9677 32.2533L57.8363 49.7388H59.3656L46.763 31.2084L58.2644 13.932H56.7964L56.7968 13.9324ZM63.0368 62V39.7083H63.159C63.8934 42.9591 65.3412 45.5715 67.5029 47.5454C69.6645 49.5189 72.4173 50.5061 75.7617 50.5061C77.9233 50.5061 79.8404 50.0068 81.5125 49.0084C83.1847 48.0099 84.5815 46.6515 85.7033 44.933C86.8246 43.2146 87.6813 41.2177 88.2728 38.9419C88.864 36.6665 89.16 34.2745 89.16 31.767C89.16 29.0731 88.8537 26.5883 88.242 24.3129C87.6303 22.0371 86.7431 20.0632 85.581 18.3916C84.4185 16.7195 83.0114 15.4188 81.3594 14.4906C79.7078 13.5615 77.8418 13.097 75.7617 13.097C74.171 13.097 72.6927 13.3642 71.3264 13.8981C69.9601 14.4325 68.7469 15.1867 67.6865 16.1622C66.6198 17.1451 65.6914 18.308 64.9333 19.6104C64.1585 20.9341 63.567 22.3854 63.159 23.9646H63.0368V13.9324H61.8133V62H63.0368V62ZM75.7617 49.1819C71.9282 49.1819 68.8486 47.6842 66.524 44.6888C64.1993 41.6935 63.0368 37.3856 63.0368 31.7662C63.0368 29.444 63.3224 27.238 63.8934 25.1483C64.4644 23.0586 65.2902 21.2239 66.3708 19.6451C67.4518 18.0659 68.7877 16.8119 70.378 15.8833C71.9686 14.9543 73.7634 14.4897 75.7617 14.4897C77.801 14.4897 79.5855 14.9543 81.1149 15.8833C82.6442 16.8119 83.9088 18.0776 84.9079 19.6798C85.907 21.282 86.6616 23.1167 87.1716 25.183C87.6813 27.2497 87.9361 29.444 87.9361 31.7662C87.9361 33.8563 87.7019 35.9348 87.2326 38.0011C86.7637 40.0678 86.0396 41.9255 85.0607 43.5746C84.0821 45.2228 82.8282 46.5695 81.2985 47.6148C79.7688 48.6597 77.9233 49.1819 75.7617 49.1819V49.1819ZM95.8894 49.7392V29.4674C95.8894 27.5169 96.134 25.6124 96.6238 23.7551C97.1129 21.8975 97.8674 20.2601 98.8871 18.844C99.9068 17.4274 101.202 16.3127 102.772 15.4999C104.342 14.6871 106.208 14.3505 108.37 14.4897V13.0966C106.493 13.0506 104.852 13.2822 103.445 13.7932C102.038 14.3041 100.824 15.0007 99.8047 15.8833C98.7851 16.7655 97.9695 17.7987 97.3578 18.9832C96.7465 20.1658 96.2929 21.4453 96.0117 22.7797H95.8894V13.9324H94.6659V49.7396H95.8894V49.7392ZM109.899 32.1145H136.205C136.287 29.653 136.073 27.2848 135.563 25.0091C135.054 22.7333 134.238 20.7129 133.116 18.9485C131.995 17.1836 130.547 15.7671 128.773 14.6988C126.998 13.6305 124.888 13.0966 122.441 13.0966C120.687 13.0966 118.974 13.5147 117.302 14.3509C115.629 15.1867 114.161 16.4055 112.897 18.0077C111.633 19.61 110.613 21.5722 109.838 23.8948C109.063 26.2166 108.676 28.8636 108.676 31.836C108.676 34.4831 108.941 36.9562 109.471 39.255C110.001 41.5538 110.817 43.5511 111.918 45.2462C113.019 46.9412 114.437 48.2533 116.17 49.1819C117.903 50.1109 119.993 50.552 122.441 50.5056C126.03 50.5056 129.048 49.3558 131.495 47.0574C133.942 44.7582 135.39 41.5191 135.839 37.3392H134.615C134.085 41.2871 132.729 44.2477 130.547 46.2212C128.365 48.1951 125.622 49.1819 122.318 49.1819C120.075 49.1819 118.178 48.7408 116.629 47.8586C115.079 46.9763 113.814 45.7684 112.835 44.236C111.857 42.7032 111.133 40.9037 110.664 38.8369C110.195 36.7706 109.94 34.5295 109.899 32.1145ZM134.982 30.7213H109.899C110.021 28.2135 110.429 25.9611 111.123 23.9642C111.816 21.9669 112.723 20.2601 113.845 18.844C114.967 17.4274 116.272 16.3478 117.761 15.6044C119.249 14.8614 120.85 14.4897 122.563 14.4897C124.602 14.4897 126.396 14.9196 127.947 15.7788C129.496 16.638 130.791 17.8108 131.832 19.2968C132.871 20.7828 133.656 22.5129 134.187 24.4864C134.717 26.4603 134.982 28.5388 134.982 30.7213ZM161.595 24.5215H162.818C162.818 20.5273 161.798 17.6247 159.759 15.8135C157.72 14.0022 154.946 13.0966 151.439 13.0966C149.481 13.0966 147.83 13.3755 146.483 13.9328C145.138 14.4897 144.036 15.2097 143.18 16.0919C142.324 16.9742 141.712 17.9496 141.345 19.0179C140.977 20.0862 140.794 21.1081 140.794 22.0831C140.794 24.0336 141.1 25.5894 141.712 26.7505C142.324 27.9116 143.282 28.8172 144.587 29.4674C145.484 29.9315 146.504 30.3496 147.646 30.7217C148.788 31.093 150.113 31.4877 151.623 31.9054C152.968 32.2775 154.294 32.6488 155.599 33.0201C156.904 33.3918 158.056 33.891 159.056 34.5178C160.055 35.145 160.871 35.9461 161.503 36.9215C162.135 37.8966 162.451 39.1739 162.451 40.7527C162.451 42.2855 162.135 43.5859 161.503 44.6537C160.876 45.7164 160.051 46.6086 159.086 47.2665C158.107 47.9397 157.016 48.4272 155.813 48.7291C154.61 49.0309 153.438 49.1819 152.296 49.1819C148.584 49.1819 145.739 48.2415 143.761 46.3609C141.783 44.4798 140.794 41.5191 140.794 37.4785H139.57C139.57 41.9836 140.641 45.2809 142.782 47.371C144.924 49.4608 148.095 50.5056 152.296 50.5056C153.641 50.5056 154.997 50.3313 156.364 49.983C157.73 49.6347 158.954 49.0661 160.034 48.2763C161.106 47.4976 162.006 46.4491 162.665 45.2115C163.338 43.9571 163.675 42.4248 163.675 40.6135C163.675 38.895 163.379 37.5019 162.788 36.4336C162.196 35.3657 161.421 34.4831 160.463 33.7865C159.504 33.0899 158.424 32.5443 157.22 32.1496C156.01 31.7526 154.797 31.3693 153.58 30.9998C152.083 30.5524 150.584 30.1113 149.083 29.6765C147.799 29.3048 146.606 28.8636 145.505 28.3527C144.444 27.8418 143.598 27.1105 142.966 26.1585C142.333 25.2064 142.018 23.848 142.018 22.0831C142.018 21.7582 142.099 21.1775 142.262 20.3417C142.425 19.5054 142.813 18.6579 143.425 17.7987C144.036 16.9399 144.974 16.1735 146.239 15.4999C147.503 14.8267 149.237 14.4897 151.439 14.4897C152.948 14.4897 154.324 14.6758 155.568 15.0471C156.812 15.4188 157.883 16.0108 158.78 16.8236C159.678 17.6365 160.371 18.6696 160.86 19.9235C161.35 21.1779 161.595 22.7103 161.595 24.5215V24.5215ZM189.92 24.5215H191.143C191.143 20.5273 190.124 17.6247 188.085 15.8135C186.045 14.0022 183.272 13.0966 179.764 13.0966C177.807 13.0966 176.155 13.3755 174.809 13.9328C173.463 14.4897 172.362 15.2097 171.505 16.0919C170.649 16.9742 170.037 17.9496 169.67 19.0179C169.303 20.0862 169.119 21.1081 169.119 22.0831C169.119 24.0336 169.425 25.5894 170.037 26.7505C170.649 27.9116 171.608 28.8172 172.912 29.4674C173.81 29.9315 174.829 30.3496 175.971 30.7217C177.113 31.093 178.439 31.4877 179.948 31.9054C181.294 32.2775 182.619 32.6488 183.924 33.0201C185.23 33.3918 186.382 33.891 187.381 34.5178C188.38 35.145 189.196 35.9461 189.828 36.9215C190.46 37.8966 190.777 39.1739 190.777 40.7527C190.777 42.2855 190.46 43.5859 189.828 44.6537C189.201 45.7164 188.376 46.6085 187.412 47.2665C186.433 47.9397 185.342 48.4272 184.139 48.7291C182.936 49.0309 181.763 49.1819 180.621 49.1819C176.909 49.1819 174.065 48.2415 172.087 46.3609C170.108 44.4798 169.119 41.5191 169.119 37.4785H167.896C167.896 41.9836 168.966 45.2809 171.108 47.371C173.249 49.4608 176.42 50.5056 180.621 50.5056C181.967 50.5056 183.323 50.3313 184.689 49.983C186.055 49.6347 187.279 49.0661 188.36 48.2763C189.432 47.4976 190.332 46.4491 190.991 45.2115C191.664 43.9571 192 42.4248 192 40.6135C192 38.895 191.704 37.5019 191.113 36.4336C190.522 35.3657 189.747 34.4831 188.788 33.7865C187.83 33.0899 186.749 32.5443 185.546 32.1496C184.336 31.7526 183.122 31.3693 181.906 30.9998C180.408 30.5524 178.909 30.1113 177.409 29.6765C176.124 29.3048 174.931 28.8636 173.83 28.3527C172.77 27.8418 171.923 27.1105 171.291 26.1585C170.659 25.2064 170.343 23.848 170.343 22.0831C170.343 21.7582 170.424 21.1775 170.588 20.3417C170.751 19.5054 171.139 18.6579 171.75 17.7987C172.362 16.9399 173.3 16.1735 174.564 15.4999C175.829 14.8267 177.562 14.4897 179.765 14.4897C181.274 14.4897 182.65 14.6758 183.894 15.0471C185.138 15.4188 186.208 16.0108 187.106 16.8236C188.003 17.6365 188.696 18.6696 189.186 19.9235C189.675 21.1779 189.92 22.7103 189.92 24.5215H189.92Z" stroke="black" stroke-width="2" mask="url(#path-1-inside-1)"/>
</g>
<defs>
<filter id="filter0_d" x="0" y="0" width="196" height="70" filterUnits="userSpaceOnUse" color-interpolation-filters="sRGB">
<feFlood flood-opacity="0" result="BackgroundImageFix"/>
<feColorMatrix in="SourceAlpha" type="matrix" values="0 0 0 0 0 0 0 0 0 0 0 0 0 0 0 0 0 0 127 0"/>
<feOffset dy="4"/>
<feGaussianBlur stdDeviation="2"/>
<feColorMatrix type="matrix" values="0 0 0 0 0 0 0 0 0 0 0 0 0 0 0 0 0 0 1 0"/>
<feBlend mode="normal" in2="BackgroundImageFix" result="effect1_dropShadow"/>
<feBlend mode="normal" in="SourceGraphic" in2="effect1_dropShadow" result="shape"/>
</filter>
</defs>
</svg>
