<svg width="2.5rem" height="2.5rem" viewBox="0 0 68 82" fill="none" xmlns="http://www.w3.org/2000/svg">
<path d="M61.2 0C64.9177 0 67.9389 3.23798 67.9992 7.25807L68 7.38001V74.62C68 78.6548 65.0157 81.9337 61.3124 81.9991L61.2 82H6.8C3.08231 82 0.0610937 78.7612 0.000796875 74.7422L0 74.62V7.38001C0 3.34436 2.9843 0.0663048 6.68764 0.000864845L6.8 0H61.2ZM61.2 4.09994H6.8C5.16003 4.09994 3.82022 5.52636 3.77878 7.29554L3.77772 7.38001V74.62C3.77772 76.3998 5.09203 77.8539 6.72217 77.8989L6.8 77.9001H61.2C62.8408 77.9001 64.1798 76.4739 64.2212 74.7047L64.2223 74.62V7.38001C64.2223 5.57191 62.8671 4.09994 61.2 4.09994V4.09994ZM17 53.3004L25.5 61.5003L17 69.7005V53.3001V53.3004ZM24.5554 12.3001V35.5789C28.3276 34.2464 33.6005 32.7998 38.7223 32.7998C43.3925 32.7998 46.1879 34.7927 47.7105 36.4645C50.927 39.9959 51.0035 44.4845 50.9992 45.0832V45.0999L51 69.7002H43.4446V45.2129C43.4074 43.299 42.5574 41 38.7223 41C31.1169 41 22.5951 45.11 22.3422 45.2328L22.3369 45.2354L17 47.8594V12.2998H24.5554V12.3001ZM51 12.3001C50.49 16.9576 48.7502 21.4225 45.3334 25.6251H37.7777C40.7471 21.3968 42.6116 16.9475 43.4446 12.3001H51Z" fill="#430098"/>
</svg>
