<svg width="2.5em" height="2.5em" viewBox="0 0 161 195" fill="none" xmlns="http://www.w3.org/2000/svg">
<path d="M80.4339 150.459L36.2585 141.932L26.4141 65.1577H134.586L124.731 141.92L80.4339 150.459V150.459Z" fill="#264DE4"/>
<path d="M116.295 137.032L124.716 71.4351H80.5V143.932L116.295 137.032V137.032Z" fill="#2965F1"/>
<path d="M48.9821 99.9097L50.1957 109.326H80.5V99.9097H48.9821Z" fill="#EBEBEB"/>
<path d="M46.5432 80.8514L47.7741 90.2675H80.5V80.8514H46.5432V80.8514Z" fill="#EBEBEB"/>
<path d="M80.5 124.364L80.4406 124.375L65.3591 121.544L64.3949 114.034H50.8008L52.6978 128.819L80.4377 134.173L80.5 134.161V124.364Z" fill="#EBEBEB"/>
<path d="M51.8718 44.2936H68.2729V49.0629H58.7308V53.8321H68.2738V58.601H51.8718V44.2936Z" fill="black"/>
<path d="M71.5536 44.2936H87.9551V48.4408H78.4126V49.2701H87.9551V58.8086H71.554V54.4536H81.0966V53.6242H71.5532V44.2936H71.5536Z" fill="black"/>
<path d="M91.2358 44.2936H107.637V48.4408H98.0947V49.2701H107.637V58.8086H91.2358V54.4536H100.778V53.6242H91.2362V44.2936H91.2358Z" fill="black"/>
<path d="M111.931 99.9097L114.376 80.8514H80.4534V90.2675H99.5351L98.3029 99.9097H80.4534V109.326H97.1288L95.5565 121.538L80.4529 124.372V134.168L108.215 128.819L108.418 127.228L111.601 102.438L111.931 99.9097V99.9097Z" fill="white"/>
<path d="M160.72 38.2254L146.104 178.863L80.4019 194.507L14.8812 178.885L0.279861 38.2254H160.72Z" fill="#E44D26"/>
<path d="M80.5 182.549L133.59 169.908L146.08 49.7261H80.5V182.549Z" fill="#F16529"/>
<path d="M52.086 84.2292H80.5V66.9779H30.1353L30.6158 71.606L35.5527 119.146H80.5V101.895H53.9218L52.086 84.2292V84.2292Z" fill="#EBEBEB"/>
<path d="M56.6129 127.772H36.4501L39.2639 154.859L80.4075 164.669L80.5 164.647V146.698L80.412 146.718L58.043 141.531L56.6129 127.772V127.772Z" fill="#EBEBEB"/>
<path d="M15.207 0H25.4141V8.66156H34.7515V0H44.9592V26.2294H34.7521V17.4463H25.4147V26.2294H15.2076V0H15.207Z" fill="black"/>
<path d="M58.3814 8.6983H49.3968V0H77.5806V8.6983H68.5904V26.2294H58.3833V8.6983H58.3826H58.3814Z" fill="black"/>
<path d="M82.0534 0H92.6964L99.2433 9.21631L105.784 0H116.431V26.2294H106.266V13.2287L99.2433 22.5546H99.0672L92.0404 13.2287V26.2294H82.0534V0Z" fill="black"/>
<path d="M121.511 0H131.721V17.5597H146.075V26.2294H121.51V0H121.511Z" fill="black"/>
<path d="M80.4308 119.146H105.164L102.832 141.52L80.4302 146.713V164.66L121.607 154.859L121.908 151.944L126.629 106.527L127.119 101.895H80.4308V119.146Z" fill="white"/>
<path d="M80.4308 84.1871V84.2292H128.947L129.349 80.3519L130.265 71.606L130.745 66.9779H80.4308V84.1876V84.1871Z" fill="white"/>
</svg>
