<svg width="113" height="169" viewBox="0 0 113 169" fill="none" xmlns="http://www.w3.org/2000/svg">
<path fill-rule="evenodd" clip-rule="evenodd" d="M90.4 10.5625H22.6C19.6031 10.5625 16.7289 11.6753 14.6097 13.6562C12.4905 15.637 11.3 18.3237 11.3 21.125V147.875C11.3 150.676 12.4905 153.363 14.6097 155.344C16.7289 157.325 19.6031 158.438 22.6 158.438H90.4C93.3969 158.438 96.2711 157.325 98.3903 155.344C100.509 153.363 101.7 150.676 101.7 147.875V21.125C101.7 18.3237 100.509 15.637 98.3903 13.6562C96.2711 11.6753 93.3969 10.5625 90.4 10.5625ZM22.6 0C16.6061 0 10.8577 2.22566 6.61939 6.18737C2.38106 10.1491 0 15.5223 0 21.125V147.875C0 153.478 2.38106 158.851 6.61939 162.813C10.8577 166.774 16.6061 169 22.6 169H90.4C96.3939 169 102.142 166.774 106.381 162.813C110.619 158.851 113 153.478 113 147.875V21.125C113 15.5223 110.619 10.1491 106.381 6.18737C102.142 2.22566 96.3939 0 90.4 0L22.6 0Z" fill="#B1B1B1"/>
<path fill-rule="evenodd" clip-rule="evenodd" d="M56.5001 147.875C59.497 147.875 62.3712 146.762 64.4904 144.781C66.6095 142.8 67.8001 140.114 67.8001 137.312C67.8001 134.511 66.6095 131.825 64.4904 129.844C62.3712 127.863 59.497 126.75 56.5001 126.75C53.5031 126.75 50.6289 127.863 48.5098 129.844C46.3906 131.825 45.2001 134.511 45.2001 137.312C45.2001 140.114 46.3906 142.8 48.5098 144.781C50.6289 146.762 53.5031 147.875 56.5001 147.875Z" fill="#B1B1B1"/>
</svg>
