<svg width="191" height="191" viewBox="0 0 191 191" fill="none" xmlns="http://www.w3.org/2000/svg">
<path d="M95.1 0C42.5771 0 0 42.5771 0 95.1C0 147.623 42.5771 190.2 95.1 190.2C147.623 190.2 190.2 147.623 190.2 95.1C190.2 42.5771 147.623 0 95.1 0ZM71.8203 134.517H52.5626V72.5435H71.8203V134.517ZM62.0726 64.9355C55.9901 64.9355 52.0573 60.6262 52.0573 55.2967C52.0573 49.8581 56.109 45.6777 62.3202 45.6777C68.5314 45.6777 72.3354 49.8581 72.4543 55.2967C72.4543 60.6262 68.5314 64.9355 62.0726 64.9355ZM142.155 134.517H122.897V100.172C122.897 92.1777 120.103 86.749 113.139 86.749C107.82 86.749 104.66 90.4242 103.263 93.9608C102.748 95.2189 102.619 97.002 102.619 98.7752V134.507H83.3512V92.3064C83.3512 84.5697 83.1035 78.1009 82.846 72.5336H99.5776L100.459 81.1421H100.846C103.382 77.1003 109.593 71.1368 119.984 71.1368C132.655 71.1368 142.155 79.6264 142.155 97.8737V134.517V134.517Z" fill="#B1B1B1"/>
</svg>
