<svg width="200" height="200" viewBox="0 0 200 200" fill="none" xmlns="http://www.w3.org/2000/svg">
<path d="M192 0H8C3.575 0 0 3.575 0 8V192C0 196.425 3.575 200 8 200H192C196.425 200 200 196.425 200 192V8C200 3.575 196.425 0 192 0ZM59.325 170.425H29.65V74.975H59.325V170.425ZM44.5 61.925C41.0982 61.925 37.7727 60.9162 34.9442 59.0263C32.1157 57.1363 29.9111 54.45 28.6093 51.3072C27.3074 48.1643 26.9668 44.7059 27.6305 41.3694C28.2942 38.033 29.9323 34.9682 32.3378 32.5628C34.7432 30.1573 37.808 28.5192 41.1444 27.8555C44.4809 27.1918 47.9393 27.5324 51.0822 28.8343C54.225 30.1361 56.9113 32.3407 58.8013 35.1692C60.6912 37.9977 61.7 41.3232 61.7 44.725C61.675 54.225 53.975 61.925 44.5 61.925ZM170.425 170.425H140.775V124C140.775 112.925 140.575 98.7 125.35 98.7C109.925 98.7 107.55 110.75 107.55 123.2V170.425H77.925V74.975H106.375V88.025H106.775C110.725 80.525 120.4 72.6 134.85 72.6C164.9 72.6 170.425 92.375 170.425 118.075V170.425V170.425Z" fill="#0E76A8"/>
</svg>
