<svg width="140" height="161" viewBox="0 0 140 161" fill="none" xmlns="http://www.w3.org/2000/svg">
<path fill-rule="evenodd" clip-rule="evenodd" d="M20.5038 19.5204C33.6312 7.02172 51.4358 0 70.0007 0C88.5657 0 106.37 7.02172 119.498 19.5204C132.625 32.0192 140 48.9711 140 66.647C140 84.3228 132.625 101.275 119.498 113.773L70.0007 160.9L20.5038 113.773C14.0033 107.585 8.84685 100.238 5.32879 92.1519C1.81073 84.0659 0 75.3993 0 66.647C0 57.8946 1.81073 49.228 5.32879 41.142C8.84685 33.056 14.0033 25.709 20.5038 19.5204V19.5204ZM70.0007 85.688C75.3047 85.688 80.3915 83.6819 84.142 80.111C87.8925 76.5401 89.9995 71.697 89.9995 66.647C89.9995 61.597 87.8925 56.7538 84.142 53.1829C80.3915 49.612 75.3047 47.6059 70.0007 47.6059C64.6967 47.6059 59.61 49.612 55.8595 53.1829C52.109 56.7538 50.002 61.597 50.002 66.647C50.002 71.697 52.109 76.5401 55.8595 80.111C59.61 83.6819 64.6967 85.688 70.0007 85.688Z" fill="#FA6F1E" fill-opacity="0.8"/>
</svg>
