<svg width="1em" height="1em" viewBox="0 0 22 25" fill="none" xmlns="http://www.w3.org/2000/svg">
<path d="M14.5727 15.2979C14.4133 15.2474 13.4056 14.8072 14.0353 12.9523H14.0263C15.6677 11.3141 16.9222 8.67795 16.9222 6.08263C16.9222 2.092 14.1837 0 11.001 0C7.81632 0 5.09289 2.09103 5.09289 6.08263C5.09289 8.68864 6.34029 11.3355 7.9918 12.9698C8.63555 14.6061 7.48441 15.2134 7.24376 15.2989C3.91067 16.4668 0 18.5957 0 20.6975V21.4855C0 24.349 5.72963 25 11.0321 25C16.3426 25 22 24.349 22 21.4855V20.6975C22 18.5326 18.0703 16.4202 14.5727 15.2979Z" fill="#949494"/>
</svg>
