<svg width="2.5em" height="2.5em" viewBox="0 0 155 90" fill="none" xmlns="http://www.w3.org/2000/svg">
<path d="M76.6589 89.0942C76.1336 89.0942 75.6431 88.9628 75.1875 88.7326L70.5278 86.1345C69.827 85.7726 70.1774 85.6411 70.3878 85.5754C71.3336 85.2794 71.5088 85.2134 72.4898 84.6875C72.595 84.6215 72.7353 84.6545 72.8402 84.7203L76.414 86.7264C76.554 86.7921 76.7293 86.7921 76.8341 86.7264L90.8137 79.1292C90.9537 79.0635 91.0241 78.9317 91.0241 78.7675V63.6062C91.0241 63.4414 90.9537 63.3102 90.8137 63.2442L76.8341 55.68C76.6941 55.614 76.5189 55.614 76.414 55.68L62.4345 63.2442C62.2944 63.3099 62.2241 63.4744 62.2241 63.6059V78.7673C62.2241 78.899 62.2944 79.0632 62.4345 79.1292L66.2535 81.2011C68.3206 82.1877 69.6169 81.0366 69.6169 79.8856V64.9214C69.6169 64.7242 69.7921 64.5267 70.0373 64.5267H71.8241C72.0345 64.5267 72.2445 64.6912 72.2445 64.9214V79.8856C72.2445 82.4836 70.7379 83.9966 68.1103 83.9966C67.3045 83.9966 66.6739 83.9966 64.8869 83.1742L61.2083 81.2011C60.2973 80.7079 59.7368 79.7868 59.7368 78.8003V63.6389C59.7368 62.6523 60.2973 61.7312 61.2083 61.238L75.1875 53.6408C76.0636 53.1804 77.2549 53.1804 78.1307 53.6408L92.1099 61.238C93.0209 61.7312 93.5817 62.6523 93.5817 63.6389V78.8003C93.5817 79.7868 93.0209 80.7079 92.1099 81.2011L78.1307 88.7983C77.6751 88.9958 77.1497 89.0942 76.6592 89.0942H76.6589ZM80.9684 78.6688C74.8373 78.6688 73.5759 76.0377 73.5759 73.8014C73.5759 73.6039 73.7512 73.4067 73.9964 73.4067H75.8183C76.0284 73.4067 76.2036 73.5382 76.2036 73.7357C76.484 75.4786 77.2898 76.3337 81.0036 76.3337C83.9465 76.3337 85.2082 75.7088 85.2082 74.2288C85.2082 73.3737 84.8575 72.7491 80.2679 72.3214C76.4489 71.9594 74.0664 71.1703 74.0664 68.3091C74.0664 65.645 76.4492 64.0663 80.4431 64.0663C84.9275 64.0663 87.135 65.5136 87.4154 68.6705C87.4154 68.7695 87.3802 68.868 87.3102 68.9667C87.2399 69.0324 87.135 69.0982 87.0298 69.0982H85.2079C85.0327 69.0982 84.8575 68.9667 84.8226 68.8022C84.4022 66.9936 83.316 66.4014 80.4431 66.4014C77.2197 66.4014 76.8341 67.454 76.8341 68.2431C76.8341 69.1969 77.2898 69.4929 81.6341 70.019C85.9436 70.5454 87.9759 71.3018 87.9759 74.13C87.9408 77.0243 85.4183 78.6688 80.9684 78.6688Z" fill="#539E43"/>
<path d="M33.2844 29.797C33.2844 29.2051 32.9339 28.6456 32.3734 28.3497L17.5181 20.3251C17.2726 20.1933 16.9925 20.1276 16.7124 20.0946H16.572C16.2919 20.0946 16.0115 20.1933 15.7663 20.3251L0.91095 28.3497C0.350132 28.6456 0 29.2048 0 29.797L0.0351648 51.3715C0.0351648 51.6674 0.210382 51.9634 0.490488 52.0951C0.770897 52.2596 1.12103 52.2596 1.36658 52.0951L10.1957 47.3592C10.7562 47.0632 11.1066 46.5041 11.1066 45.9122V35.8154C11.1066 35.2235 11.4567 34.6644 12.0176 34.3684L15.7663 32.3293C16.0467 32.1648 16.3619 32.0988 16.6772 32.0988C16.9925 32.0988 17.3077 32.1648 17.5533 32.3293L21.302 34.3684C21.8628 34.6644 22.2129 35.2232 22.2129 35.8154V45.9122C22.2129 46.5041 22.5634 47.0632 23.1239 47.3592L31.953 52.0951C32.2334 52.2596 32.5835 52.2596 32.8639 52.0951C33.1443 51.9634 33.3195 51.6674 33.3195 51.3715L33.2844 29.797Z" fill="#333333"/>
<path d="M104.688 0.0988136C104.408 -0.0329379 104.057 -0.0329379 103.812 0.0988136C103.532 0.26329 103.357 0.526223 103.357 0.822166V22.1998C103.357 22.397 103.252 22.5942 103.041 22.7259C102.831 22.8244 102.621 22.8244 102.411 22.7259L98.6969 20.7198C98.4247 20.5742 98.1167 20.4977 97.8034 20.4977C97.4901 20.4977 97.1822 20.5742 96.9099 20.7198L82.0546 28.7774C81.4941 29.0733 81.1436 29.6325 81.1436 30.2244V46.3066C81.1436 46.8985 81.4941 47.4579 82.0546 47.7539L96.9099 55.8115C97.1822 55.957 97.4901 56.0335 97.8034 56.0335C98.1167 56.0335 98.4247 55.957 98.6969 55.8115L113.552 47.7539C114.113 47.4579 114.463 46.8988 114.463 46.3066V6.21601C114.463 5.59111 114.113 5.03224 113.552 4.73601L104.688 0.0988136H104.688ZM103.322 41.0118C103.322 41.1763 103.252 41.3077 103.111 41.3734L98.0312 44.136C97.9603 44.1685 97.8824 44.1853 97.8034 44.1853C97.7245 44.1853 97.6466 44.1685 97.5756 44.136L92.4955 41.3734C92.3552 41.3077 92.2851 41.1432 92.2851 41.0118V35.4865C92.2851 35.322 92.3552 35.1905 92.4955 35.1248L97.5756 32.362C97.6466 32.3295 97.7245 32.3126 97.8034 32.3126C97.8824 32.3126 97.9603 32.3295 98.0312 32.362L103.111 35.1248C103.252 35.1902 103.322 35.355 103.322 35.4865V41.0118Z" fill="#333333"/>
<path d="M154.124 35.355C154.685 35.0591 155 34.4999 155 33.9077V29.9942C155 29.4023 154.65 28.8431 154.124 28.5472L139.374 20.5226C139.102 20.3771 138.794 20.3006 138.48 20.3006C138.167 20.3006 137.859 20.3771 137.587 20.5226L122.732 28.5799C122.171 28.8758 121.821 29.435 121.821 30.0272V46.1094C121.821 46.7013 122.171 47.2604 122.732 47.5564L137.482 55.4495C138.043 55.7455 138.708 55.7455 139.234 55.4495L148.168 50.7799C148.448 50.6481 148.623 50.3522 148.623 50.0562C148.623 49.7603 148.448 49.4644 148.168 49.3326L133.242 41.275C132.962 41.1108 132.787 40.8476 132.787 40.5516V35.5198C132.787 35.2238 132.962 34.9279 133.242 34.7961L137.902 32.2965C138.039 32.216 138.197 32.1732 138.358 32.1732C138.519 32.1732 138.677 32.216 138.813 32.2965L143.473 34.7961C143.753 34.9606 143.929 35.2235 143.929 35.5198V39.4663C143.929 39.7623 144.104 40.0582 144.384 40.1897C144.664 40.3542 145.014 40.3542 145.295 40.1897L154.124 35.355V35.355Z" fill="#333333"/>
<path d="M138.253 34.5986C138.305 34.5665 138.366 34.5494 138.428 34.5494C138.49 34.5494 138.551 34.5665 138.603 34.5986L141.441 36.1444C141.546 36.2098 141.616 36.3086 141.616 36.4403V39.5318C141.616 39.6632 141.546 39.762 141.441 39.8277L138.603 41.3735C138.551 41.4056 138.49 41.4227 138.428 41.4227C138.366 41.4227 138.305 41.4056 138.253 41.3735L135.415 39.8277C135.31 39.762 135.24 39.6632 135.24 39.5318V36.4403C135.24 36.3086 135.31 36.2098 135.415 36.1444L138.253 34.5986V34.5986Z" fill="#539E43"/>
<mask id="mask0" mask-type="alpha" maskUnits="userSpaceOnUse" x="40" y="20" width="34" height="36">
<path d="M58.125 20.5883C57.8527 20.4428 57.5449 20.3663 57.2316 20.3663C56.9183 20.3663 56.6105 20.4428 56.3382 20.5883L41.5881 28.5796C41.0273 28.8756 40.712 29.4347 40.712 30.0266V46.0434C40.712 46.6353 41.0625 47.1944 41.5881 47.4904L56.3382 55.4822C56.6105 55.6277 56.9183 55.7042 57.2316 55.7042C57.5449 55.7042 57.8527 55.6277 58.125 55.4822L72.8754 47.4904C73.4359 47.1944 73.7515 46.6353 73.7515 46.0434V30.0269C73.7515 29.435 73.4007 28.8758 72.8754 28.5799L58.125 20.5883Z" fill="white"/>
</mask>
<g mask="url(#mask0)">
<path d="M58.125 20.5883C57.8527 20.4428 57.5449 20.3663 57.2316 20.3663C56.9183 20.3663 56.6105 20.4428 56.3382 20.5883L41.5881 28.5796C41.0273 28.8756 40.712 29.4347 40.712 30.0266V46.0434C40.712 46.6353 41.0625 47.1944 41.5881 47.4904L56.3382 55.4822C56.6105 55.6277 56.9183 55.7042 57.2316 55.7042C57.5449 55.7042 57.8527 55.6277 58.125 55.4822L72.8754 47.4904C73.4359 47.1944 73.7515 46.6353 73.7515 46.0434V30.0269C73.7515 29.435 73.4007 28.8758 72.8754 28.5799L58.125 20.5883Z" fill="url(#paint0_linear)"/>
<path d="M72.9102 28.5799L58.0901 20.5883C57.9445 20.5193 57.7918 20.4642 57.6345 20.4239L41.0273 47.1293C41.1649 47.2869 41.331 47.4206 41.5181 47.524L56.3382 55.5158C56.7587 55.7461 57.2492 55.8118 57.7045 55.68L73.2958 28.9092C73.1906 28.7777 73.0503 28.6787 72.9102 28.5802V28.5799Z" fill="url(#paint1_linear)"/>
<path fill-rule="evenodd" clip-rule="evenodd" d="M72.9454 47.4906C73.3659 47.2604 73.6811 46.8658 73.8215 46.4383L57.5641 20.3908C57.1437 20.3251 56.688 20.3578 56.3031 20.588L41.5878 28.5472L57.4589 55.7127C57.6898 55.6773 57.914 55.6109 58.1247 55.5155L72.9451 47.4909L72.9454 47.4906Z" fill="url(#paint2_linear)"/>
<path fill-rule="evenodd" clip-rule="evenodd" d="M72.9454 47.4906L58.1601 55.4825C57.9514 55.5824 57.7264 55.6491 57.4944 55.6797L57.7748 56.1732L74.1716 47.2607V47.0632L73.7511 46.4053C73.6811 46.8658 73.3659 47.2604 72.9454 47.4906V47.4906Z" fill="url(#paint3_linear)"/>
<path fill-rule="evenodd" clip-rule="evenodd" d="M72.9454 47.4906L58.1601 55.4825C57.9514 55.5824 57.7264 55.6491 57.4944 55.6797L57.7748 56.1732L74.1716 47.2607V47.0632L73.7511 46.4053C73.6811 46.8658 73.3659 47.2604 72.9454 47.4906V47.4906Z" fill="url(#paint4_linear)"/>
</g>
<defs>
<linearGradient id="paint0_linear" x1="63.241" y1="26.5459" x2="48.4895" y2="51.2385" gradientUnits="userSpaceOnUse">
<stop stop-color="#41873F"/>
<stop offset="0.3288" stop-color="#418B3D"/>
<stop offset="0.6352" stop-color="#419637"/>
<stop offset="0.9319" stop-color="#3FA92D"/>
<stop offset="1" stop-color="#3FAE2A"/>
</linearGradient>
<linearGradient id="paint1_linear" x1="54.9922" y1="39.9114" x2="94.2754" y2="17.1748" gradientUnits="userSpaceOnUse">
<stop offset="0.1376" stop-color="#41873F"/>
<stop offset="0.4032" stop-color="#54A044"/>
<stop offset="0.7136" stop-color="#66B848"/>
<stop offset="0.9081" stop-color="#6CC04A"/>
</linearGradient>
<linearGradient id="paint2_linear" x1="40.1731" y1="38.0358" x2="74.3047" y2="38.0358" gradientUnits="userSpaceOnUse">
<stop offset="0.09192" stop-color="#6CC04A"/>
<stop offset="0.2864" stop-color="#66B848"/>
<stop offset="0.5968" stop-color="#54A044"/>
<stop offset="0.8624" stop-color="#41873F"/>
</linearGradient>
<linearGradient id="paint3_linear" x1="40.1733" y1="51.3161" x2="74.3045" y2="51.3161" gradientUnits="userSpaceOnUse">
<stop offset="0.09192" stop-color="#6CC04A"/>
<stop offset="0.2864" stop-color="#66B848"/>
<stop offset="0.5968" stop-color="#54A044"/>
<stop offset="0.8624" stop-color="#41873F"/>
</linearGradient>
<linearGradient id="paint4_linear" x1="79.277" y1="25.7885" x2="71.626" y2="68.4981" gradientUnits="userSpaceOnUse">
<stop stop-color="#41873F"/>
<stop offset="0.3288" stop-color="#418B3D"/>
<stop offset="0.6352" stop-color="#419637"/>
<stop offset="0.9319" stop-color="#3FA92D"/>
<stop offset="1" stop-color="#3FAE2A"/>
</linearGradient>
</defs>
</svg>
