<svg width="1em" height="1em" viewBox="0 0 32 34" fill="none" xmlns="http://www.w3.org/2000/svg">
<path d="M19.9432 9.79654L19.5641 9.41351C18.6255 8.37933 18.788 7.90054 19.7085 6.92381L24.6182 1.65715C26.0802 0.0867236 26.351 -0.660185 27.7408 0.737875L28.1199 1.12091L19.9432 9.79654ZM20.8998 10.6584L28.8419 2.23169C30.1054 4.03194 33.0657 8.87727 31.6036 12.4586C30.2859 15.6569 29.6361 15.8101 27.9936 18.2041C24.6543 22.245 20.4486 26.5733 17.1634 29.829C14.8891 31.5718 14.7989 32.3762 11.7484 33.6593C8.49936 35.0191 3.80632 31.9548 2.0374 30.6717L9.97948 22.245L12.1094 25.3476C12.7231 26.2285 14.2754 25.2327 15.3584 24.0836C17.2356 22.0727 21.0984 17.9934 22.5785 16.2889C23.6435 15.159 24.6001 13.5119 23.7698 12.8416L20.8998 10.6584ZM1.00854 29.9056L0.62949 29.5035C-0.597922 28.0862 0.106035 27.7798 1.5681 26.2477L6.51385 21.0385C7.4344 20.1001 7.86761 19.8894 8.80622 20.8278L9.16722 21.23L1.00854 29.9056Z" fill="#949494"/>
</svg>
