<svg width="2.5em" height="2.5em" viewBox="0 0 123 125" fill="none" xmlns="http://www.w3.org/2000/svg">
<path d="M122.523 74.8513C121.786 72.6501 119.854 71.117 117.355 70.7491C116.177 70.5758 114.828 70.6496 113.232 70.974C110.449 71.5398 108.384 71.7552 106.877 71.7969C112.565 62.3343 117.189 51.5436 119.851 41.3859C124.156 24.9612 121.856 17.4787 119.168 14.0942C112.053 5.1359 101.674 0.323396 89.1519 0.176142C82.472 0.0956497 76.6079 1.39537 73.5487 2.33002C70.7005 1.83476 67.638 1.55824 64.4246 1.50711C58.401 1.41241 53.0788 2.70645 48.5312 5.36601C46.0135 4.52699 41.9728 3.34423 37.3065 2.58949C26.3316 0.813926 17.4862 2.19745 11.0162 6.70171C3.18167 12.1553 -0.450197 21.6307 0.221498 34.8646C0.434827 39.0663 2.81987 51.8504 6.57522 63.9744C8.73348 70.9432 11.0349 76.7301 13.4157 81.1761C16.7919 87.4806 20.4045 91.1932 24.4602 92.5265C26.7333 93.2727 30.8634 93.7955 35.2073 90.2301C35.7579 90.8873 36.4926 91.5402 37.4674 92.1468C38.7056 92.9162 40.2196 93.545 41.7316 93.9176C47.1806 95.2599 52.2846 94.9242 56.6391 93.0426C56.666 93.8059 56.6867 94.535 56.704 95.1648C56.7328 96.1861 56.7616 97.1875 56.7996 98.1241C57.0576 104.456 57.4948 109.38 58.7902 112.825C58.8613 113.015 58.9569 113.304 59.0578 113.61C59.704 115.56 60.7846 118.824 63.5338 121.38C66.3806 124.028 69.8241 124.84 72.9779 124.84C74.5596 124.84 76.0688 124.636 77.3925 124.357C82.1107 123.36 87.4693 121.842 91.3458 116.402C95.0108 111.26 96.7924 103.516 97.1147 91.3125C97.1565 90.9673 97.195 90.6378 97.232 90.3239L97.3089 89.679L98.1723 89.7538L98.3947 89.7685C103.2 89.9844 109.076 88.9801 112.685 87.3281C115.537 86.0242 124.675 81.2699 122.523 74.8513" fill="black"/>
<path d="M114.306 76.0994C100.017 79.0043 99.0347 74.2367 99.0347 74.2367C114.121 52.1757 120.429 24.1724 114.986 17.3187C100.138 -1.37689 74.4352 7.46497 74.0061 7.69414L73.8682 7.71876C71.045 7.14111 67.8859 6.79736 64.3348 6.74006C57.8696 6.6359 52.965 8.41052 49.2432 11.1918C49.2432 11.1918 3.39211 -7.42282 5.52491 34.6028C5.97847 43.5431 18.5283 102.251 33.4968 84.5185C38.9679 78.0341 44.2545 72.5516 44.2545 72.5516C46.8798 74.2704 50.023 75.1473 53.3181 74.8324L53.5742 74.6184C53.4944 75.4233 53.5309 76.2107 53.6765 77.143C49.8203 81.3887 50.9537 82.134 43.2451 83.6979C35.4447 85.2822 40.0269 88.1023 43.0188 88.84C46.6458 89.7334 55.0367 90.9995 60.7063 83.178L60.4804 84.0706C61.991 85.2633 63.0519 91.8277 62.8741 97.7789C62.6964 103.73 62.5777 107.815 63.7678 111.007C64.9589 114.198 66.1452 121.378 76.2792 119.239C84.7465 117.45 89.1346 112.816 89.7453 105.086C90.1782 99.5909 91.1589 100.403 91.2204 95.4901L92.0069 93.1643C92.9135 85.715 92.151 83.3116 97.3675 84.4295L98.6359 84.5393C102.475 84.7112 107.501 83.9304 110.45 82.5796C116.801 79.6752 120.568 74.8253 114.305 76.0994H114.306" fill="#336791"/>
<path d="M51.9271 38.6008C50.6395 38.4242 49.4734 38.5876 48.8834 39.0279C48.5519 39.2756 48.449 39.5625 48.4212 39.7599C48.3472 40.2831 48.7191 40.8617 48.9478 41.16C49.5945 42.0047 50.5391 42.5852 51.4741 42.7131C51.6096 42.732 51.7446 42.7405 51.8786 42.7405C53.4377 42.7405 54.8556 41.544 54.9805 40.661C55.1367 39.5549 53.5074 38.8177 51.9271 38.6013" fill="white"/>
<path d="M94.5851 38.6359C94.4621 37.7689 92.8967 37.5218 91.4111 37.7254C89.9274 37.929 88.4889 38.589 88.609 39.4578C88.7051 40.1335 89.9433 41.2869 91.4087 41.2869C91.5327 41.2869 91.6576 41.2789 91.7835 41.2614C92.7617 41.1278 93.4795 40.5156 93.8207 40.1629C94.3396 39.625 94.6404 39.0256 94.5851 38.6359" fill="white"/>
<path d="M119.061 75.7694C118.516 74.1458 116.763 73.6236 113.849 74.2164C105.198 75.9758 102.1 74.7571 101.083 74.0189C107.807 63.9242 113.339 51.7216 116.323 40.3366C117.736 34.9437 118.517 29.9351 118.581 25.8527C118.652 21.3722 117.877 18.0795 116.28 16.0682C109.841 7.95975 100.39 3.61032 88.9501 3.491C81.0854 3.40388 74.4405 5.38731 73.1523 5.94507C70.4396 5.2803 67.4823 4.87216 64.2627 4.82008C58.3587 4.72585 53.2552 6.11884 49.0299 8.95833C47.1945 8.28504 42.4513 6.6804 36.6506 5.75947C26.6223 4.16856 18.6532 5.37405 12.9664 9.34422C6.18075 14.0819 3.04809 22.5507 3.65493 34.5147C3.85913 38.5398 6.18652 50.9223 9.85922 62.7808C14.6937 78.3887 19.9491 87.2244 25.4783 89.0421C26.1255 89.2547 26.8717 89.4034 27.6947 89.4034C29.7117 89.4034 32.1847 88.5076 34.7576 85.4593C37.8958 81.7493 41.1421 78.1294 44.4924 74.6042C46.666 75.7538 49.0539 76.3958 51.4962 76.4602C51.501 76.5232 51.5072 76.5862 51.513 76.6487C51.0926 77.1427 50.6809 77.6439 50.2782 78.152C48.586 80.2689 48.2338 80.7098 42.7867 81.8149C41.2372 82.1302 37.122 82.9659 37.0614 85.8087C36.9961 88.9148 41.9262 90.2192 42.4879 90.3575C44.4453 90.8404 46.3311 91.0786 48.1295 91.0786C52.5032 91.0786 56.3523 89.6619 59.4282 86.9209C59.3336 97.9938 59.802 108.905 61.1512 112.229C62.2563 114.951 64.9555 121.602 73.4819 121.601C74.7331 121.601 76.1101 121.458 77.625 121.138C86.5238 119.258 90.3882 115.382 91.8829 106.837C92.6829 102.27 94.0556 91.3655 94.7014 85.5161C96.064 85.9351 97.8182 86.1269 99.7146 86.1264C103.67 86.1264 108.234 85.2983 111.096 83.9891C114.311 82.5175 120.113 78.9067 119.061 75.7694V75.7694ZM97.8696 36.2429C97.8403 37.9697 97.5991 39.5374 97.3434 41.1738C97.0681 42.9337 96.7837 44.7533 96.7121 46.9621C96.6415 49.1117 96.9139 51.3466 97.1772 53.508C97.7096 57.8736 98.2559 62.3679 96.1413 66.8026C95.7901 66.1892 95.4772 65.5553 95.2044 64.9044C94.9416 64.2765 94.3708 63.268 93.5804 61.8722C90.5059 56.4384 83.3061 43.714 86.9918 38.5218C88.0896 36.9763 90.8759 35.3873 97.8696 36.2429V36.2429ZM89.3922 6.98769C99.6425 7.2107 107.751 10.9896 113.492 18.2187C117.895 23.7637 113.046 48.9943 99.0102 70.7609C98.869 70.584 98.7271 70.4077 98.5845 70.232L98.4067 70.0133C102.034 64.1103 101.325 58.2699 100.693 53.0919C100.434 50.9669 100.189 48.9597 100.251 47.0743C100.316 45.0762 100.584 43.3622 100.843 41.705C101.162 39.6629 101.486 37.5497 101.397 35.0587C101.463 34.7973 101.49 34.4886 101.455 34.1222C101.227 31.7334 98.4596 24.5843 92.8189 18.1136C89.7333 14.5743 85.2337 10.6136 79.09 7.94223C81.7325 7.40246 85.3461 6.89915 89.3922 6.98769V6.98769ZM32.0348 83.2282C29.2 86.5871 27.2426 85.9432 26.5988 85.732C22.4043 84.3532 17.5371 75.6165 13.246 61.7623C9.53298 49.7746 7.36318 37.7202 7.19118 34.34C6.64921 23.6496 9.27881 16.1993 15.0074 12.1955C24.3305 5.6804 39.6584 9.58002 45.8175 11.5578C45.7291 11.6439 45.6368 11.7244 45.5494 11.812C35.4423 21.8707 35.682 39.0563 35.707 40.107C35.706 40.5123 35.7406 41.0862 35.7877 41.8755C35.9616 44.7661 36.2855 50.1458 35.4206 56.2382C34.6173 61.8996 36.3883 67.4408 40.2787 71.4413C40.6779 71.8511 41.0976 72.2411 41.536 72.6098C39.8044 74.4375 36.0409 78.4792 32.0348 83.2282V83.2282ZM42.8352 69.027C39.6997 65.8026 38.2756 61.3177 38.9276 56.7211C39.8405 50.2855 39.5037 44.6804 39.3225 41.669C39.2971 41.2476 39.2745 40.8783 39.2615 40.5871C40.738 39.2969 47.5803 35.6842 52.46 36.786C54.6865 37.2884 56.0433 38.7827 56.6074 41.3527C59.5267 54.6591 56.9937 60.205 54.9584 64.6619C54.539 65.58 54.1426 66.4479 53.8043 67.3456L53.542 68.0398C52.878 69.7945 52.2601 71.4261 51.8772 72.9754C48.5437 72.9659 45.301 71.5625 42.8352 69.0265V69.027ZM43.3469 86.9721C42.3735 86.7325 41.4981 86.3163 40.9845 85.9711C41.4135 85.7723 42.177 85.5014 43.5012 85.2325C49.9092 83.9328 50.8989 83.0152 53.0601 80.3111C53.5554 79.6908 54.1171 78.9882 54.895 78.1321L54.896 78.1312C56.0544 76.8527 56.5843 77.0696 57.5453 77.4626C58.3241 77.7798 59.0828 78.7419 59.3903 79.8007C59.5358 80.3007 59.6992 81.2495 59.1644 81.9882C54.65 88.2173 48.0714 88.1373 43.3469 86.9721V86.9721ZM76.8832 117.726C69.0438 119.381 66.2682 115.439 64.439 110.933C63.2585 108.024 62.6781 94.9058 63.0899 80.4186C63.0952 80.2258 63.0673 80.0398 63.0135 79.8646C62.9653 79.5186 62.8921 79.1765 62.7944 78.8409C62.1823 76.7329 60.6904 74.9697 58.9007 74.2386C58.1896 73.9484 56.8846 73.4157 55.3164 73.8111C55.6508 72.4531 56.2307 70.9195 56.8596 69.259L57.1234 68.5606C57.4203 67.7732 57.7932 66.9574 58.1872 66.0937C60.3171 61.4309 63.234 55.044 60.0682 40.6155C58.8824 35.2112 54.9224 32.572 48.9194 33.1851C45.3207 33.5521 42.028 34.983 40.3858 35.8035C40.0327 35.9796 39.7098 36.1501 39.408 36.3158C39.8664 30.8707 41.598 20.6946 48.0757 14.2562C52.1544 10.2031 57.5861 8.20123 64.2041 8.30918C77.244 8.51941 85.6061 15.1141 90.3252 20.6098C94.3919 25.3452 96.5939 30.1155 97.4727 32.6884C90.8638 32.026 86.3691 33.3116 84.0907 36.5218C79.1337 43.5047 86.8024 57.0578 90.4881 63.5715C91.1641 64.7651 91.7474 65.7969 91.931 66.2353C93.1312 69.1018 94.685 71.0156 95.8194 72.4124C96.1673 72.8404 96.5046 73.2557 96.7611 73.6184C94.7595 74.187 91.1641 75.5009 91.4918 82.0686C91.2276 85.3641 89.3484 100.793 88.3938 106.244C87.1335 113.446 84.4443 116.128 76.8832 117.726V117.726ZM109.605 80.8243C107.558 81.7604 104.133 82.4626 100.879 82.6136C97.2853 82.7794 95.4557 82.2169 95.0252 81.8707C94.8234 77.7779 96.3691 77.3504 98.0051 76.8977C98.2621 76.8267 98.5129 76.7571 98.7551 76.6738C98.9055 76.7945 99.0703 76.9143 99.2509 77.0317C102.139 78.9105 107.292 79.1132 114.565 77.6335L114.645 77.6179C113.664 78.5218 111.985 79.7348 109.605 80.8243Z" fill="white"/>
</svg>
