<svg width="2.5em" height="2.5em" viewBox="0 0 64 61" fill="none" xmlns="http://www.w3.org/2000/svg">
<path d="M44.3452 42.4333C46.707 42.1888 48.4987 40.1528 48.4172 37.7093C48.336 35.266 46.2997 33.3112 43.8565 33.3112H43.6937C41.1687 33.3927 39.2142 35.5102 39.2957 38.035C39.3772 39.2567 39.8657 40.3155 40.5987 41.0485C37.8297 46.5055 33.5947 50.4962 27.2422 53.8355C22.9257 56.116 18.4465 56.9305 13.9672 56.3605C10.3022 55.8718 7.45175 54.243 5.65975 51.555C3.05375 47.5643 2.8095 43.2475 5.0085 38.931C6.556 35.836 8.999 33.5555 10.5465 32.4152C10.2207 31.3565 9.732 29.5647 9.48775 28.2617C-2.3215 36.8135 -1.09975 48.3787 2.48375 53.8355C5.17125 57.908 10.628 60.4328 16.6547 60.4328C18.2835 60.4328 19.9122 60.2698 21.5412 59.8628C31.966 57.8265 39.866 51.6365 44.3452 42.4333V42.4333ZM58.6792 32.334C52.4895 25.0852 43.368 21.0945 32.9432 21.0945H31.6402C30.9072 19.6285 29.3597 18.651 27.6495 18.651H27.4865C24.962 18.7325 23.0075 20.85 23.0887 23.375C23.1702 25.8182 25.2062 27.773 27.6495 27.773H27.8122C29.604 27.6915 31.1515 26.5512 31.803 25.0037H33.269C39.4587 25.0037 45.3225 26.7955 50.6165 30.2978C54.6885 32.9855 57.6205 36.4878 59.2492 40.7228C60.6337 44.1435 60.5522 47.4827 59.0862 50.3335C56.806 54.65 52.9782 57.012 47.9287 57.012C44.671 57.012 41.5762 56.0345 39.9472 55.3015C39.0515 56.116 37.4225 57.419 36.2822 58.2337C39.7845 59.8625 43.368 60.7585 46.7885 60.7585C54.607 60.7585 60.3895 56.4418 62.5885 52.1253C64.9502 47.4013 64.7872 39.2567 58.6792 32.334V32.334ZM17.3062 43.8175C17.3877 46.261 19.4237 48.2155 21.867 48.2155H22.03C24.5547 48.1342 26.5092 46.0165 26.4277 43.4917C26.3465 41.0482 24.3102 39.0938 21.867 39.0938H21.7042C21.5412 39.0938 21.2967 39.0937 21.1342 39.175C17.795 33.6367 16.4105 27.61 16.8992 21.0942C17.2247 16.2075 18.8537 11.9723 21.7042 8.47C24.066 5.4565 28.6267 3.9905 31.7217 3.90925C40.3545 3.74625 44.0192 14.497 44.2637 18.8137C45.3225 19.058 47.1142 19.6282 48.336 20.0355C47.3585 6.8415 39.2142 0 31.396 0C24.066 0 17.3062 5.294 14.6185 13.1128C10.8722 23.5378 13.3155 33.5555 17.8762 41.4557C17.4692 42.0257 17.2247 42.9217 17.3062 43.8177V43.8175Z" fill="#764ABC"/>
</svg>
