<svg width="2.5em" height="2.5em" viewBox="0 0 57 37" fill="none" xmlns="http://www.w3.org/2000/svg">
<path d="M17.3819 24.5685C20.2359 24.5685 22.5495 21.8112 22.5495 18.4096C22.5495 15.0086 20.2359 12.2513 17.3817 12.2513C14.5279 12.2513 12.2143 15.0084 12.2143 18.4099C12.2143 21.8112 14.5279 24.5685 17.3819 24.5685ZM5.16763 36.8854C8.02164 36.8854 10.3353 34.1284 10.3353 30.7268C10.3353 27.3258 8.02164 24.5685 5.16741 24.5685C2.31384 24.5685 0 27.3255 0 30.7268C0 34.1281 2.3134 36.8856 5.16763 36.8856V36.8854ZM51.8324 36.8854C54.6864 36.8854 57 34.1284 57 30.7268C57 27.3258 54.6866 24.5685 51.8324 24.5685C48.9784 24.5685 46.6647 27.3255 46.6647 30.7268C46.6647 34.1281 48.9784 36.8856 51.8326 36.8856L51.8324 36.8854Z" fill="black"/>
<path d="M34.8602 18.6694C34.695 16.6119 34.6108 14.8993 33.2882 13.6957C31.6134 12.1715 29.7159 13.1604 27.3789 12.155C25.0822 11.493 23.3789 9.06313 23.3789 6.1668C23.3789 2.761 25.7342 0 28.6394 0C30.7914 0 32.6414 1.51437 33.4563 3.68389C34.7034 6.50725 33.8927 9.38022 35.4598 10.8275C37.3152 12.5411 39.8167 11.2863 42.6079 12.9099C43.4988 13.3972 44.2577 14.1715 44.7989 15.1455C45.3514 16.1402 45.6456 17.307 45.6445 18.4999C45.6445 21.3962 43.9412 23.8263 41.6447 24.4884C39.3075 25.4938 37.41 24.5048 35.7352 26.029C33.8515 27.7432 34.86 30.6108 33.3247 33.6398C32.4535 35.6348 30.6825 37 28.6394 37C25.7342 37 23.3789 34.239 23.3789 30.8332C23.3789 28.3593 24.6218 26.2256 26.4155 25.2433C29.2067 23.6193 31.708 24.8744 33.5636 23.1608C34.634 22.1721 34.8602 20.6471 34.8602 18.6694V18.6694Z" fill="#D0021B"/>
</svg>
