<svg width="2.5em" height="2.5em" viewBox="0 0 32 24" fill="none" xmlns="http://www.w3.org/2000/svg">
<path d="M27.4784 13.7575C26.3652 13.7632 25.3975 14.0314 24.5874 14.4277C24.29 13.839 23.9928 13.3145 23.9404 12.9297C23.882 12.481 23.8122 12.207 23.882 11.6707C23.952 11.1345 24.2668 10.3709 24.2609 10.3126C24.2552 10.2544 24.1909 9.98036 23.5498 9.97461C22.9087 9.96874 22.3549 10.097 22.2908 10.266C22.2267 10.435 22.1043 10.8197 22.0227 11.216C21.9119 11.799 20.7404 13.8797 20.0702 14.9697C19.8544 14.5444 19.6679 14.1712 19.627 13.874C19.5688 13.4252 19.4988 13.1512 19.5688 12.615C19.6388 12.0787 19.9535 11.3152 19.9477 11.2569C19.9418 11.1986 19.8777 10.9246 19.2365 10.9189C18.5953 10.913 18.0415 11.0412 17.9775 11.2102C17.9134 11.3794 17.8434 11.7756 17.7094 12.1604C17.5753 12.5451 16.019 16.0191 15.611 16.9166C15.4462 17.2799 15.2732 17.6394 15.0923 17.995C15.0923 17.995 15.0864 18.0125 15.0689 18.0416C15.0121 18.1531 14.9538 18.2639 14.8942 18.3739V18.3796C14.8067 18.5371 14.7134 18.6827 14.6668 18.6827C14.6318 18.6827 14.5677 18.2631 14.6784 17.6919C14.9115 16.4854 15.4653 14.6085 15.4595 14.5444C15.4595 14.5094 15.5644 14.183 15.0982 14.0139C14.6434 13.8449 14.4803 14.1246 14.4394 14.1246C14.3987 14.1246 14.3694 14.2237 14.3694 14.2237C14.3694 14.2237 14.8767 12.1137 13.4019 12.1137C12.481 12.1137 11.2103 13.1221 10.5808 14.0314C9.86519 14.4208 9.15019 14.8113 8.43579 15.203C8.09204 15.3954 7.73642 15.5877 7.40417 15.7684C7.38079 15.7451 7.35754 15.7159 7.33417 15.6926C5.55054 13.7866 2.25154 12.4401 2.39142 9.88136C2.44392 8.94874 2.76442 6.50061 8.72729 3.52799C13.635 1.10899 17.5404 1.77924 18.2165 3.26561C19.184 5.38736 16.124 9.32761 11.0529 9.89874C9.11779 10.1145 8.10354 9.36836 7.84717 9.08861C7.57904 8.79711 7.53817 8.77961 7.43904 8.83799C7.27592 8.92549 7.38079 9.18774 7.43904 9.33924C7.59067 9.73549 8.21429 10.435 9.26929 10.779C10.2019 11.082 12.4693 11.2511 15.2147 10.1902C18.2864 9.00111 20.6879 5.69624 19.9827 2.92761C19.2773 0.118113 14.6143 -0.808637 10.2019 0.759238C7.57904 1.69199 4.73454 3.16074 2.68867 5.07261C0.258044 7.34574 -0.126706 9.32174 0.0306693 10.1495C0.596169 13.0871 4.64717 14.999 6.26754 16.4154C6.18592 16.462 6.11004 16.5029 6.04604 16.5379C5.23579 16.94 2.14654 18.5545 1.37717 20.2624C0.502919 22.1975 1.51717 23.5849 2.18742 23.7712C4.26829 24.3484 6.40742 23.3109 7.55567 21.5971C8.70392 19.8835 8.56404 17.6569 8.03367 16.6369C8.02779 16.6252 8.02204 16.6135 8.01029 16.6019C8.22017 16.4795 8.43579 16.3512 8.64567 16.2289C9.0314 16.0008 9.42204 15.7812 9.81729 15.5701C9.61904 16.1122 9.47329 16.7592 9.40342 17.6919C9.31592 18.7877 9.76467 20.2099 10.3534 20.7694C10.6158 21.0144 10.9247 21.0201 11.1229 21.0201C11.8107 21.0201 12.1197 20.4489 12.4635 19.7727C12.8832 18.9451 13.262 17.9834 13.262 17.9834C13.262 17.9834 12.7899 20.583 14.0723 20.583C14.5385 20.583 15.0107 19.9767 15.2205 19.6679V19.6736C15.2205 19.6736 15.2322 19.6561 15.2555 19.6154C15.3022 19.5396 15.3313 19.4929 15.3313 19.4929V19.4814C15.5178 19.1549 15.9375 18.4146 16.5612 17.1847C17.3655 15.5994 18.1408 13.6176 18.1408 13.6176C18.1408 13.6176 18.2108 14.1014 18.4497 14.9057C18.5897 15.3779 18.8809 15.8966 19.1142 16.3979C18.9277 16.6602 18.811 16.8059 18.811 16.8059L18.8169 16.8117C18.6653 17.0099 18.5022 17.2255 18.3214 17.4355C17.686 18.1931 16.9284 19.0617 16.8234 19.3122C16.7009 19.6095 16.7302 19.8252 16.9634 20.0001C17.1324 20.1284 17.4354 20.1457 17.7444 20.1284C18.3157 20.0875 18.7178 19.9476 18.9159 19.8602C19.2249 19.7495 19.5863 19.5804 19.9243 19.3297C20.548 18.8692 20.9268 18.2106 20.8919 17.3422C20.8744 16.8642 20.717 16.3862 20.5247 15.9374C20.583 15.8559 20.6354 15.7742 20.6938 15.6926C21.6788 14.2529 22.4424 12.6732 22.4424 12.6732C22.4424 12.6732 22.5124 13.157 22.7513 13.9615C22.8679 14.3695 23.1069 14.8125 23.3167 15.2437C22.3899 15.9957 21.8187 16.87 21.6147 17.4412C21.2475 18.5021 21.533 18.98 22.0752 19.0907C22.3199 19.1432 22.6697 19.0266 22.9262 18.9159C23.2525 18.811 23.6373 18.6304 24.0045 18.3621C24.6283 17.9017 25.2285 17.2605 25.1935 16.3921C25.176 15.9957 25.0712 15.6051 24.9254 15.2262C25.7123 14.9 26.7265 14.7192 28.0204 14.8707C30.795 15.1971 31.3429 16.9282 31.2379 17.657C31.133 18.3855 30.5502 18.7819 30.3579 18.9042C30.1654 19.0267 30.1014 19.0675 30.1189 19.1549C30.1422 19.2831 30.2354 19.2774 30.3987 19.254C30.626 19.2132 31.8559 18.6652 31.9083 17.3246C31.9958 15.611 30.3637 13.74 27.4784 13.7575V13.7575ZM6.07517 20.9735C5.15417 21.976 3.87192 22.3549 3.31817 22.0344C2.72367 21.6904 2.95679 20.2099 4.08754 19.1491C4.77529 18.5021 5.66129 17.9016 6.25004 17.5345C6.38404 17.4529 6.58229 17.3364 6.82129 17.1906C6.86204 17.1672 6.88542 17.1556 6.88542 17.1556L7.02529 17.0681C7.43904 18.5836 7.04279 19.9185 6.07517 20.9735V20.9735ZM12.7783 16.4154C12.4577 17.1965 11.7874 19.1957 11.3794 19.085C11.0297 18.9917 10.8139 17.4762 11.3094 15.9782C11.56 15.2262 12.0904 14.3286 12.3994 13.979C12.9007 13.4194 13.4544 13.2327 13.5884 13.4602C13.7575 13.7575 12.9764 15.9257 12.7783 16.4154V16.4154ZM18.3098 19.0616C18.1757 19.1316 18.0475 19.1782 17.9892 19.1432C17.9484 19.1199 18.0475 19.0266 18.0475 19.0266C18.0475 19.0266 18.7412 18.2806 19.015 17.9425C19.1725 17.7444 19.3589 17.5112 19.5572 17.2489V17.3246C19.5572 18.2165 18.6944 18.8169 18.3097 19.0616H18.3098ZM22.5764 18.0882C22.4773 18.0182 22.4948 17.7851 22.827 17.0565C22.9553 16.7709 23.2583 16.293 23.7772 15.8325C23.8354 16.019 23.8763 16.1997 23.8704 16.3687C23.8645 17.4937 23.0603 17.9134 22.5764 18.0882Z" fill="#CD6799"/>
</svg>
