<svg width="2.5em" height="2.5em" viewBox="0 0 37 37" fill="none" xmlns="http://www.w3.org/2000/svg">
<path d="M0 0H37V37H0V0Z" fill="#34BDB2"/>
<path d="M24.3479 12.5802C22.3944 11.4468 20.6603 10.5554 18.3918 10.5948C17.0939 10.6173 15.9795 11.3228 15.7452 12.6139C15.5271 13.8151 16.5949 14.4813 17.7058 14.8904C19.5481 15.5688 21.152 16.2851 22.9623 17.0394C26.2531 18.4109 27.9405 20.6319 27.741 23.4816C27.4872 27.1074 25.3051 29.708 21.8371 30.5654C17.3055 31.6858 12.9049 29.9791 9.18684 27.5967C10.1253 26.1671 11.214 25.1913 12.1468 23.7704C14.2949 24.6847 15.9824 25.9201 18.2296 26.1128C19.8141 26.2486 21.6094 26.1731 21.9654 24.3119C22.2863 22.6336 20.8257 21.7339 19.401 21.2314C17.7049 20.6332 16.012 19.9014 14.3488 19.2221C11.2742 17.9663 10.0231 15.51 10.2337 12.6163C10.2337 10.9197 11.6414 7.49037 15.093 6.42373C20.3961 4.78474 23.318 6.46304 27.1635 8.93438C26.1421 10.2852 25.3569 11.2456 24.3479 12.5802" fill="white"/>
</svg>
